<svg width="336" height="323" viewBox="0 0 336 323" fill="none" xmlns="http://www.w3.org/2000/svg">
<g clip-path="url(#clip0_125_5705)">
<path d="M75.8015 83.3693C75.5364 84.2727 70.9741 91.4793 64.4027 93.9375C57.8313 96.3887 52.9411 99.0991 54.7688 102.335C56.5965 105.57 64.6678 103.805 64.6678 103.805C64.6678 103.805 48.2881 121.685 63.7051 131.903C82.5124 144.363 102.171 99.7644 102.171 99.7644L75.8015 83.3763V83.3693Z" fill="#EBEBEB"/>
<path d="M99.0805 105.878C99.0317 105.962 92.83 102.251 85.2331 97.5933C77.6362 92.929 71.5182 89.0841 71.5671 89.0001C71.6159 88.916 77.8176 92.6279 85.4145 97.2852C93.0114 101.942 99.1293 105.794 99.0805 105.878Z" fill="#E0E0E0"/>
<path d="M96.1645 111.222C96.1157 111.306 89.4187 107.363 81.2079 102.412C72.9972 97.4603 66.3769 93.3773 66.4327 93.2932C66.4816 93.2092 73.1785 97.1521 81.3963 102.111C89.6071 107.062 96.2203 111.145 96.1715 111.229L96.1645 111.222Z" fill="#E0E0E0"/>
<path d="M92.6485 116.293C92.5997 116.377 85.0795 111.936 75.8503 106.369C66.621 100.801 59.1846 96.2207 59.2334 96.1366C59.2822 96.0526 66.8024 100.493 76.0316 106.061C85.2539 111.621 92.6974 116.202 92.6485 116.286V116.293Z" fill="#E0E0E0"/>
<path d="M88.2606 122.561C88.2118 122.645 82.3798 119.073 75.2434 114.591C68.1069 110.102 62.3587 106.397 62.4145 106.32C62.4633 106.236 68.2952 109.807 75.4317 114.29C82.5682 118.772 88.3094 122.477 88.2606 122.561Z" fill="#E0E0E0"/>
<path d="M83.1054 128.619C83.0496 128.703 77.6223 125.187 70.9811 120.768C64.3399 116.349 59.0033 112.7 59.0521 112.616C59.1079 112.532 64.5352 116.047 71.1764 120.467C77.8176 124.886 83.1542 128.535 83.0984 128.619H83.1054Z" fill="#E0E0E0"/>
<path d="M76.527 132.821C76.527 132.821 76.22 132.702 75.7038 132.436C75.1876 132.169 74.4411 131.763 73.5343 131.245C71.7135 130.216 69.237 128.738 66.5582 127.015C63.8795 125.285 61.5076 123.639 59.8124 122.414C58.9683 121.797 58.2917 121.293 57.8312 120.929C57.3708 120.572 57.1197 120.362 57.1406 120.341C57.1546 120.32 57.4336 120.488 57.9149 120.817C58.4591 121.181 59.1427 121.65 59.9589 122.204C61.682 123.38 64.0748 124.991 66.7466 126.714C69.4254 128.437 71.874 129.942 73.6598 131.028C74.5039 131.546 75.2085 131.973 75.7666 132.317C76.2619 132.625 76.5339 132.807 76.52 132.828L76.527 132.821Z" fill="#E0E0E0"/>
<path d="M61.103 104.205C61.0751 104.289 59.3451 103.735 57.4685 102.531C55.585 101.333 54.3572 99.9885 54.42 99.9325C54.4968 99.8555 55.8152 101.06 57.6569 102.23C59.4986 103.413 61.1379 104.107 61.103 104.205Z" fill="#E0E0E0"/>
<path d="M100.95 98.826C100.95 98.826 100.88 98.966 100.713 99.2111C100.524 99.4843 100.28 99.8415 99.9804 100.283C99.3386 101.207 98.3968 102.531 97.2178 104.156C94.853 107.405 91.5254 111.852 87.7235 116.664C83.9146 121.475 80.3638 125.74 77.7408 128.787C76.4293 130.314 75.362 131.532 74.6086 132.366C74.2528 132.758 73.9598 133.073 73.7366 133.325C73.5342 133.542 73.4226 133.654 73.4157 133.64C73.4087 133.633 73.4994 133.507 73.6807 133.276C73.89 133.017 74.1621 132.688 74.5039 132.275C75.2504 131.378 76.2828 130.138 77.5524 128.619C80.1196 125.53 83.6425 121.244 87.4514 116.44C91.2533 111.635 94.6158 107.216 97.0225 104.009C98.2084 102.426 99.1781 101.137 99.8757 100.206C100.197 99.7854 100.462 99.4423 100.664 99.1761C100.845 98.945 100.95 98.8259 100.957 98.833L100.95 98.826Z" fill="#E0E0E0"/>
<path d="M95.6203 95.0091C95.6971 95.0721 89.1675 103.63 81.0335 114.122C72.8924 124.62 66.2373 133.08 66.1606 133.017C66.0838 132.954 72.6134 124.396 80.7544 113.897C88.8885 103.399 95.5506 94.939 95.6273 95.0021L95.6203 95.0091Z" fill="#E0E0E0"/>
<path d="M88.184 90.779C88.184 90.779 88.1212 90.933 87.9747 91.2062C87.8073 91.5073 87.584 91.8995 87.305 92.3898C86.712 93.4123 85.8261 94.876 84.682 96.6479C82.4009 100.199 79.0035 104.947 74.9993 109.989C71.002 115.039 67.2141 119.472 64.4864 122.68C63.1331 124.256 62.0309 125.544 61.2356 126.469C60.8659 126.889 60.5659 127.225 60.3357 127.484C60.1264 127.715 60.0148 127.834 60.0009 127.82C59.9939 127.813 60.0846 127.68 60.2799 127.435C60.4962 127.162 60.7752 126.812 61.124 126.371C61.8983 125.425 62.9726 124.115 64.2911 122.512C66.9699 119.255 70.723 114.801 74.7203 109.758C78.7175 104.723 82.1358 100.01 84.4727 96.5008C85.6447 94.7499 86.5586 93.3072 87.1864 92.3127C87.4864 91.8365 87.7305 91.4583 87.9119 91.1641C88.0793 90.905 88.177 90.772 88.184 90.779Z" fill="#E0E0E0"/>
<path d="M82.0799 87.2702C82.1566 87.3333 76.5898 94.7289 69.6417 103.798C62.6935 112.868 57.0011 120.166 56.9244 120.109C56.8476 120.046 62.4145 112.651 69.3626 103.581C76.3107 94.5188 82.0032 87.2142 82.0799 87.2702Z" fill="#E0E0E0"/>
<path d="M77.4897 84.2657C77.4897 84.2657 77.3014 84.6299 76.9037 85.2532C76.7084 85.5684 76.4573 85.9466 76.1503 86.3668C75.8434 86.787 75.5016 87.2842 75.076 87.7955C74.2668 88.839 73.2134 90.0226 71.9787 91.2552C70.73 92.4738 69.279 93.7484 67.6605 94.953C66.0281 96.1436 64.3888 97.1521 62.854 97.9855C61.3054 98.7979 59.8753 99.4493 58.6405 99.9185C58.0336 100.171 57.4616 100.346 56.9663 100.521C56.471 100.696 56.0385 100.822 55.6827 100.913C54.9711 101.109 54.5735 101.2 54.5665 101.179C54.5665 101.158 54.9432 101.011 55.6408 100.78C55.9896 100.668 56.4152 100.521 56.9035 100.332C57.3918 100.143 57.9499 99.9535 58.5498 99.6874C59.7637 99.1971 61.1798 98.5248 62.7006 97.6984C64.2144 96.858 65.8398 95.8495 67.4512 94.6659C69.0557 93.4683 70.4998 92.2217 71.7554 91.0171C72.9972 89.8055 74.0575 88.6499 74.8877 87.6344C75.3202 87.1372 75.669 86.6609 75.9969 86.2477C76.3247 85.8415 76.5898 85.4773 76.7991 85.1762C77.2316 84.5809 77.4758 84.2517 77.4967 84.2657H77.4897Z" fill="#E0E0E0"/>
<path d="M109.405 74.4119H21.9187V83.6844H109.405V74.4119Z" fill="#E0E0E0"/>
<path d="M49.6554 83.3693C49.3903 84.2727 44.828 91.4793 38.2566 93.9375C31.6851 96.3887 26.795 99.0991 28.6227 102.335C30.4504 105.57 38.5216 103.805 38.5216 103.805C38.5216 103.805 22.1419 121.685 37.559 131.903C56.3663 144.363 76.0247 99.7644 76.0247 99.7644L49.6554 83.3763V83.3693Z" fill="#F5F5F5"/>
<path d="M72.9274 105.878C72.8786 105.962 66.6769 102.251 59.08 97.5933C51.4831 92.929 45.3652 89.0841 45.414 89.0001C45.4628 88.916 51.6645 92.6279 59.2614 97.2852C66.8583 101.942 72.9762 105.794 72.9274 105.878Z" fill="#E0E0E0"/>
<path d="M70.0184 111.222C69.9696 111.306 63.2726 107.363 55.0618 102.412C46.851 97.4603 40.2308 93.3773 40.2866 93.2932C40.3354 93.2092 47.0324 97.1521 55.2502 102.111C63.4609 107.062 70.0742 111.145 70.0254 111.229L70.0184 111.222Z" fill="#E0E0E0"/>
<path d="M66.5024 116.293C66.4536 116.377 58.9334 111.936 49.7042 106.369C40.4749 100.801 33.0384 96.2207 33.0873 96.1366C33.1361 96.0526 40.6563 100.493 49.8855 106.061C59.1078 111.621 66.5512 116.202 66.5024 116.286V116.293Z" fill="#E0E0E0"/>
<path d="M62.1145 122.561C62.0657 122.645 56.2337 119.073 49.0972 114.591C41.9608 110.102 36.2125 106.397 36.2683 106.32C36.3172 106.236 42.1491 109.807 49.2856 114.29C56.4221 118.772 62.1633 122.477 62.1145 122.561Z" fill="#E0E0E0"/>
<path d="M56.9593 128.619C56.9035 128.703 51.4761 125.187 44.835 120.768C38.1938 116.349 32.8571 112.7 32.906 112.616C32.9618 112.532 38.3891 116.047 45.0303 120.467C51.6715 124.886 57.0081 128.535 56.9523 128.619H56.9593Z" fill="#E0E0E0"/>
<path d="M50.3739 132.821C50.3739 132.821 50.0669 132.702 49.5507 132.436C49.0345 132.169 48.288 131.763 47.3812 131.245C45.5604 130.216 43.0839 128.738 40.4051 127.015C37.7263 125.285 35.3545 123.639 33.6593 122.414C32.8152 121.797 32.1386 121.293 31.6781 120.929C31.2177 120.572 30.9666 120.362 30.9805 120.341C30.9945 120.32 31.2735 120.488 31.7549 120.817C32.299 121.181 32.9827 121.65 33.7988 122.204C35.5219 123.38 37.9147 124.991 40.5865 126.714C43.2653 128.437 45.7139 129.942 47.4997 131.028C48.3438 131.546 49.0484 131.973 49.6065 132.317C50.1018 132.625 50.3739 132.807 50.3599 132.828L50.3739 132.821Z" fill="#E0E0E0"/>
<path d="M34.95 104.205C34.9221 104.289 33.192 103.735 31.3155 102.531C29.4319 101.333 28.2042 99.9885 28.2669 99.9325C28.3437 99.8555 29.6622 101.06 31.5038 102.23C33.3455 103.413 34.9849 104.107 34.95 104.205Z" fill="#E0E0E0"/>
<path d="M74.8039 98.826C74.8039 98.826 74.7341 98.966 74.5667 99.2111C74.3784 99.4843 74.1342 99.8415 73.8342 100.283C73.1924 101.207 72.2507 102.531 71.0717 104.156C68.7068 107.405 65.3793 111.852 61.5774 116.664C57.7684 121.475 54.2177 125.74 51.5947 128.787C50.2832 130.314 49.2158 131.532 48.4624 132.366C48.1067 132.758 47.8137 133.073 47.5904 133.325C47.3881 133.542 47.2765 133.654 47.2695 133.64C47.2626 133.633 47.3532 133.507 47.5346 133.276C47.7439 133.017 48.016 132.688 48.3578 132.275C49.1042 131.378 50.1367 130.138 51.4063 128.619C53.9735 125.53 57.4964 121.244 61.3053 116.44C65.1072 111.635 68.4697 107.216 70.8834 104.009C72.0693 102.426 73.039 101.137 73.7366 100.206C74.0575 99.7854 74.3225 99.4423 74.5249 99.1761C74.7062 98.945 74.8109 98.8259 74.8178 98.833L74.8039 98.826Z" fill="#E0E0E0"/>
<path d="M69.4742 95.0091C69.5509 95.0721 63.0214 103.63 54.8873 114.122C46.7463 124.62 40.0912 133.08 40.0145 133.017C39.9377 132.954 46.4673 124.396 54.6083 113.897C62.7423 103.399 69.4044 94.939 69.4812 95.0021L69.4742 95.0091Z" fill="#E0E0E0"/>
<path d="M62.0308 90.779C62.0308 90.779 61.968 90.933 61.8215 91.2062C61.6541 91.5073 61.4308 91.8995 61.1518 92.3898C60.5588 93.4123 59.6729 94.876 58.5288 96.6479C56.2477 100.199 52.8503 104.947 48.8461 109.989C44.8488 115.039 41.0609 119.472 38.3332 122.68C36.9799 124.256 35.8777 125.544 35.0824 126.469C34.7127 126.889 34.4127 127.225 34.1825 127.484C33.9732 127.715 33.8616 127.834 33.8477 127.82C33.8407 127.813 33.9314 127.68 34.1267 127.435C34.343 127.162 34.622 126.812 34.9708 126.371C35.7451 125.425 36.8194 124.115 38.1379 122.512C40.8167 119.255 44.5698 114.801 48.5601 109.758C52.5573 104.723 55.9756 100.01 58.3126 96.5008C59.4845 94.7499 60.3984 93.3072 61.0262 92.3127C61.3262 91.8365 61.5634 91.4583 61.7517 91.1641C61.9192 90.905 62.0168 90.772 62.0238 90.779H62.0308Z" fill="#E0E0E0"/>
<path d="M55.9338 87.2702C56.0105 87.3333 50.4437 94.7289 43.4955 103.798C36.5474 112.868 30.855 120.166 30.7782 120.109C30.7015 120.046 36.2684 112.651 43.2165 103.581C50.1646 94.5188 55.857 87.2142 55.9338 87.2702Z" fill="#E0E0E0"/>
<path d="M51.3365 84.2657C51.3365 84.2657 51.1482 84.6299 50.7505 85.2532C50.5552 85.5684 50.3041 85.9466 49.9971 86.3668C49.6902 86.787 49.3484 87.2842 48.9228 87.7955C48.1136 88.839 47.0602 90.0226 45.8255 91.2552C44.5768 92.4738 43.1258 93.7484 41.5073 94.953C39.8749 96.1436 38.2356 97.1521 36.7008 97.9855C35.1522 98.7979 33.7221 99.4493 32.4873 99.9185C31.8804 100.171 31.3084 100.346 30.8131 100.521C30.3178 100.696 29.8853 100.822 29.5295 100.913C28.8179 101.109 28.4203 101.2 28.4133 101.179C28.4133 101.158 28.79 101.011 29.4876 100.78C29.8364 100.668 30.262 100.521 30.7503 100.332C31.2386 100.143 31.7967 99.9535 32.3966 99.6874C33.6105 99.1971 35.0266 98.5248 36.5474 97.6984C38.0612 96.858 39.6866 95.8495 41.298 94.6659C42.9025 93.4683 44.3466 92.2217 45.6022 91.0171C46.844 89.8055 47.9043 88.6499 48.7345 87.6344C49.167 87.1372 49.5158 86.6609 49.8437 86.2477C50.1715 85.8415 50.4366 85.4773 50.6459 85.1762C51.0784 84.5809 51.3226 84.2517 51.3435 84.2657H51.3365Z" fill="#E0E0E0"/>
<path d="M68.5047 28.0069H62.9099V33.6237H68.5047V28.0069Z" fill="#E0E0E0"/>
<path d="M91.9161 41.1034H39.7704V74.1457H91.9161V41.1034Z" fill="#F5F5F5"/>
<path d="M39.7704 41.1034C39.7704 41.1034 47.751 32.7342 67.7652 33.0634C87.7794 33.3995 91.9092 41.1034 91.9092 41.1034H39.7704Z" fill="#F5F5F5"/>
<path d="M91.7138 41.6356C91.7138 41.7337 79.9941 41.8177 65.5328 41.8177C51.0715 41.8177 39.3518 41.7407 39.3518 41.6356C39.3518 41.5306 51.0715 41.4535 65.5328 41.4535C79.9941 41.4535 91.7138 41.5306 91.7138 41.6356Z" fill="#E0E0E0"/>
<path d="M91.7139 41.6426H103.455C104.522 41.6426 105.38 42.5111 105.38 43.5756V44.2269C105.38 45.2984 104.515 46.1599 103.455 46.1599H91.7139V41.6356V41.6426Z" fill="#E0E0E0"/>
<path d="M39.9587 46.1599H28.2181C27.1508 46.1599 26.2927 45.2914 26.2927 44.2269V43.5756C26.2927 42.5041 27.1577 41.6426 28.2181 41.6426H39.9587V46.1669V46.1599Z" fill="#E0E0E0"/>
<path d="M71.5182 26.3891H60.1682C59.4054 26.3891 58.787 27.0099 58.787 27.7758V28.238C58.787 29.0038 59.4054 29.6247 60.1682 29.6247H71.5182C72.2811 29.6247 72.8995 29.0038 72.8995 28.238V27.7758C72.8995 27.0099 72.2811 26.3891 71.5182 26.3891Z" fill="#E0E0E0"/>
<path d="M320.011 241.578H18.8213V322.692H320.011V241.578Z" fill="#F5F5F5"/>
<path d="M322.097 238.209H14.9915V248.077H322.097V238.209Z" fill="#E0E0E0"/>
<path d="M109.956 261.306H30.7363V285.868H109.956V261.306Z" fill="#EBEBEB"/>
<path d="M70.3462 275.643C71.4751 275.643 72.3902 274.724 72.3902 273.591C72.3902 272.457 71.4751 271.538 70.3462 271.538C69.2174 271.538 68.3022 272.457 68.3022 273.591C68.3022 274.724 69.2174 275.643 70.3462 275.643Z" fill="#E0E0E0"/>
<path d="M109.956 291.05H30.7363V315.611H109.956V291.05Z" fill="#EBEBEB"/>
<path d="M70.3462 305.379C71.4751 305.379 72.3902 304.461 72.3902 303.327C72.3902 302.194 71.4751 301.275 70.3462 301.275C69.2174 301.275 68.3022 302.194 68.3022 303.327C68.3022 304.461 69.2174 305.379 70.3462 305.379Z" fill="#E0E0E0"/>
<path d="M304.008 261.306H224.788V285.868H304.008V261.306Z" fill="#EBEBEB"/>
<path d="M264.398 275.643C265.527 275.643 266.442 274.724 266.442 273.591C266.442 272.457 265.527 271.538 264.398 271.538C263.269 271.538 262.354 272.457 262.354 273.591C262.354 274.724 263.269 275.643 264.398 275.643Z" fill="#E0E0E0"/>
<path d="M304.008 291.05H224.788V315.611H304.008V291.05Z" fill="#EBEBEB"/>
<path d="M264.398 305.379C265.527 305.379 266.442 304.461 266.442 303.327C266.442 302.194 265.527 301.275 264.398 301.275C263.269 301.275 262.354 302.194 262.354 303.327C262.354 304.461 263.269 305.379 264.398 305.379Z" fill="#E0E0E0"/>
<path d="M112.412 322.832C112.412 322.832 112.405 322.468 112.398 321.753C112.398 321.025 112.391 319.953 112.384 318.553C112.377 315.73 112.363 311.584 112.349 306.262C112.328 295.581 112.307 280.188 112.272 261.306V261.166H112.412C140.274 261.152 176.445 261.138 215.845 261.124H216.033V261.306C216.033 283.094 216.026 303.895 216.019 322.825V322.993H215.852C185.492 322.958 159.611 322.93 141.32 322.909C132.196 322.888 124.961 322.874 120.002 322.86C117.539 322.853 115.635 322.846 114.344 322.839C113.709 322.839 113.228 322.832 112.893 322.832C112.565 322.832 112.405 322.825 112.405 322.825C112.405 322.825 112.579 322.825 112.907 322.818C113.242 322.818 113.737 322.818 114.379 322.811C115.676 322.811 117.588 322.797 120.071 322.79C125.038 322.776 132.286 322.762 141.425 322.741C159.695 322.72 185.527 322.692 215.845 322.657L215.678 322.825C215.678 303.895 215.671 283.094 215.664 261.306L215.845 261.489H215.838C176.438 261.474 140.267 261.46 112.405 261.446L112.544 261.306C112.516 280.146 112.488 295.511 112.467 306.171C112.453 311.507 112.44 315.66 112.433 318.49C112.433 319.897 112.419 320.976 112.419 321.711C112.419 322.44 112.405 322.825 112.405 322.825L112.412 322.832Z" fill="#EBEBEB"/>
<path d="M65.7908 208.752C65.7908 213.039 62.3307 216.519 58.0544 216.519C53.7781 216.519 50.318 213.046 50.318 208.752C50.318 204.459 53.7781 200.986 58.0544 200.986C62.3307 200.986 65.7908 204.459 65.7908 208.752Z" fill="#E0E0E0"/>
<path d="M73.1435 216.393C77.4162 216.393 80.8799 212.916 80.8799 208.626C80.8799 204.337 77.4162 200.859 73.1435 200.859C68.8708 200.859 65.4071 204.337 65.4071 208.626C65.4071 212.916 68.8708 216.393 73.1435 216.393Z" fill="#F5F5F5"/>
<path d="M42.9653 216.393C47.238 216.393 50.7017 212.916 50.7017 208.626C50.7017 204.337 47.238 200.859 42.9653 200.859C38.6926 200.859 35.2289 204.337 35.2289 208.626C35.2289 212.916 38.6926 216.393 42.9653 216.393Z" fill="#F5F5F5"/>
<path d="M32.6826 210.293H83.2029C83.2029 210.293 82.6867 231.206 69.1184 233.769L68.9091 238.209H46.1603V233.685C46.1603 233.685 32.6826 230.225 32.6826 210.293Z" fill="#EBEBEB"/>
<path d="M69.1183 233.769C69.1183 233.839 63.963 233.902 57.6009 233.902C51.2388 233.902 46.0835 233.846 46.0835 233.769C46.0835 233.692 51.2388 233.636 57.6009 233.636C63.963 233.636 69.1183 233.692 69.1183 233.769Z" fill="white"/>
<path d="M81.2427 221.072C81.2427 221.072 81.1311 221.093 80.9218 221.114C80.6986 221.135 80.3847 221.163 79.9661 221.198C79.136 221.247 77.8733 221.352 76.2967 221.015C75.5154 220.847 74.6504 220.56 73.8272 220.021C73.011 219.489 72.2088 218.711 71.7344 217.654C71.5042 217.122 71.3717 216.526 71.3786 215.903C71.4065 215.28 71.6019 214.642 72.0204 214.117C72.2297 213.858 72.4948 213.627 72.8087 213.487C73.1226 213.347 73.4854 213.298 73.8412 213.347C74.5457 213.466 75.1736 213.949 75.5363 214.593C75.8991 215.245 75.9619 216.043 75.8293 216.792C75.6968 217.549 75.3759 218.27 74.9573 218.942C74.1132 220.28 72.7948 221.401 71.1972 221.996C69.6067 222.605 67.7302 222.598 66.035 221.94C65.1909 221.611 64.3887 221.135 63.6911 220.504C63.0144 219.867 62.3726 219.118 62.1005 218.165C61.968 217.696 61.961 217.171 62.1075 216.687C62.254 216.211 62.5679 215.756 63.0353 215.511C63.9771 215.028 65.163 215.385 65.8466 216.155C66.5512 216.925 66.8582 217.948 67.0256 218.949C67.186 219.965 67.1442 221.015 66.9349 222.038C66.5094 224.076 65.3862 226.03 63.6701 227.347C62.819 228.005 61.8215 228.495 60.7681 228.775C59.7077 229.041 58.5986 229.118 57.5033 228.992C55.3129 228.761 53.227 227.697 51.8318 226.044C51.1412 225.218 50.625 224.23 50.4436 223.166C50.2552 222.108 50.4854 220.973 51.0924 220.098C51.6783 219.223 52.6759 218.564 53.7572 218.62C54.8106 218.683 55.8082 219.314 56.2407 220.28C56.4639 220.756 56.4778 221.317 56.3453 221.807C56.1988 222.304 55.9058 222.745 55.55 223.089C54.8315 223.782 53.9107 224.195 52.9898 224.44C49.2856 225.456 45.3511 224.328 42.9444 221.919C42.3514 221.31 41.8631 220.602 41.584 219.818C41.298 219.04 41.2562 218.186 41.4445 217.409C41.6329 216.631 42.0584 215.917 42.6863 215.455C43.3071 214.986 44.1094 214.831 44.8279 214.929C45.5534 215.028 46.2301 215.399 46.6696 215.945C47.1091 216.491 47.3462 217.171 47.3532 217.836C47.3672 218.501 47.13 219.139 46.7603 219.636C46.3975 220.14 45.9162 220.518 45.4278 220.819C44.4442 221.415 43.4048 221.702 42.463 221.94C41.5143 222.171 40.6353 222.304 39.84 222.381C38.2495 222.528 37.0008 222.444 36.1637 222.36C35.3266 222.269 34.894 222.164 34.894 222.164C34.894 222.164 35.0057 222.171 35.2149 222.199C35.4312 222.227 35.7451 222.269 36.1637 222.304C37.0008 222.374 38.2425 222.444 39.8261 222.276C40.6144 222.192 41.4934 222.052 42.4281 221.821C43.3629 221.576 44.3884 221.289 45.3441 220.7C45.8185 220.406 46.2789 220.035 46.6207 219.552C46.9695 219.076 47.1858 218.473 47.1718 217.843C47.1649 217.22 46.9347 216.575 46.5161 216.064C46.1045 215.553 45.4697 215.21 44.786 215.119C44.1024 215.028 43.356 215.175 42.7839 215.616C42.1979 216.043 41.8003 216.722 41.6259 217.458C41.4445 218.2 41.4864 219.005 41.7654 219.748C42.0305 220.497 42.5049 221.177 43.0839 221.765C45.4348 224.104 49.2995 225.204 52.9131 224.202C53.806 223.964 54.692 223.558 55.3687 222.906C55.7035 222.584 55.9686 222.185 56.1011 221.737C56.2197 221.289 56.2128 220.805 56.0105 220.378C55.6268 219.517 54.692 218.928 53.7432 218.872C53.2619 218.837 52.7875 218.991 52.362 219.23C51.9434 219.482 51.5737 219.825 51.3016 220.238C50.7366 221.065 50.5203 222.115 50.7017 223.117C50.8761 224.125 51.3714 225.07 52.0411 225.869C53.3875 227.466 55.4105 228.502 57.5452 228.726C58.6125 228.845 59.6938 228.775 60.7193 228.516C61.7447 228.243 62.7005 227.774 63.5306 227.137C65.1909 225.862 66.2861 223.957 66.7047 221.982C66.914 220.987 66.9558 219.965 66.7954 218.984C66.6419 218.011 66.328 217.031 65.6862 216.323C65.0723 215.616 63.984 215.308 63.1748 215.728C62.7772 215.938 62.4982 216.33 62.3656 216.764C62.2331 217.199 62.2331 217.668 62.3586 218.102C62.6028 218.984 63.2237 219.72 63.8724 220.329C64.5421 220.938 65.3234 221.401 66.1396 221.723C67.779 222.367 69.5997 222.374 71.1414 221.793C72.6971 221.226 73.9807 220.133 74.8108 218.837C75.2154 218.186 75.5294 217.486 75.6619 216.764C75.7944 216.05 75.7386 215.294 75.4038 214.691C75.0689 214.089 74.483 213.641 73.8481 213.529C73.5272 213.48 73.2063 213.529 72.9133 213.648C72.6273 213.781 72.3832 213.984 72.1878 214.229C71.7972 214.719 71.6019 215.329 71.574 215.917C71.56 216.512 71.6786 217.087 71.9018 217.598C72.3553 218.627 73.1366 219.391 73.9319 219.916C74.7341 220.448 75.5852 220.735 76.3525 220.91C77.9082 221.261 79.1639 221.17 79.994 221.135C80.4056 221.114 80.7265 221.093 80.9497 221.079C81.166 221.065 81.2776 221.064 81.2776 221.064L81.2427 221.072Z" fill="white"/>
<path d="M263.317 0H209.455V41.2784H263.317V0Z" fill="#F5F5F5"/>
<path d="M145.778 86.3178L209.455 41.2784H263.317L329.735 86.3178V92.5999H145.778V86.3178Z" fill="#F5F5F5"/>
<path d="M329.735 86.3178H145.778V92.5999H329.735V86.3178Z" fill="#EBEBEB"/>
<path d="M220.812 41.6776L193.305 86.3178H239.026L230.913 41.6776V0H220.589L220.812 41.6776Z" fill="#FAFAFA"/>
<path d="M262.549 41.6776C262.549 41.7757 250.488 41.8597 235.622 41.8597C220.756 41.8597 208.688 41.7757 208.688 41.6776C208.688 41.5796 220.742 41.4956 235.622 41.4956C250.502 41.4956 262.549 41.5796 262.549 41.6776Z" fill="#E0E0E0"/>
<path d="M18.8213 147.451H0V166.346H18.8213V147.451Z" fill="#FAFAFA"/>
<path d="M18.8213 168.623H0V187.518H18.8213V168.623Z" fill="#FAFAFA"/>
<path d="M40.0285 147.451H21.2072V166.346H40.0285V147.451Z" fill="#FAFAFA"/>
<path d="M40.0285 168.623H21.2072V187.518H40.0285V168.623Z" fill="#FAFAFA"/>
<path d="M61.2424 147.451H42.4211V166.346H61.2424V147.451Z" fill="#FAFAFA"/>
<path d="M61.2424 168.623H42.4211V187.518H61.2424V168.623Z" fill="#FAFAFA"/>
<path d="M82.4496 147.451H63.6283V166.346H82.4496V147.451Z" fill="#FAFAFA"/>
<path d="M82.4496 168.623H63.6283V187.518H82.4496V168.623Z" fill="#FAFAFA"/>
<path d="M103.336 147.451H84.5145V166.346H103.336V147.451Z" fill="#FAFAFA"/>
<path d="M103.336 168.623H84.5145V187.518H103.336V168.623Z" fill="#FAFAFA"/>
<path d="M124.55 147.451H105.729V166.346H124.55V147.451Z" fill="#FAFAFA"/>
<path d="M124.55 168.623H105.729V187.518H124.55V168.623Z" fill="#FAFAFA"/>
<path d="M145.757 147.451H126.936V166.346H145.757V147.451Z" fill="#FAFAFA"/>
<path d="M145.757 168.623H126.936V187.518H145.757V168.623Z" fill="#FAFAFA"/>
<path d="M166.971 147.451H148.15V166.346H166.971V147.451Z" fill="#FAFAFA"/>
<path d="M166.971 168.623H148.15V187.518H166.971V168.623Z" fill="#FAFAFA"/>
<path d="M187.85 147.451H169.029V166.346H187.85V147.451Z" fill="#FAFAFA"/>
<path d="M187.85 168.623H169.029V187.518H187.85V168.623Z" fill="#FAFAFA"/>
<path d="M209.064 147.451H190.243V166.346H209.064V147.451Z" fill="#FAFAFA"/>
<path d="M209.064 168.623H190.243V187.518H209.064V168.623Z" fill="#FAFAFA"/>
<path d="M230.271 147.451H211.45V166.346H230.271V147.451Z" fill="#FAFAFA"/>
<path d="M230.271 168.623H211.45V187.518H230.271V168.623Z" fill="#FAFAFA"/>
<path d="M251.485 147.451H232.664V166.346H251.485V147.451Z" fill="#FAFAFA"/>
<path d="M251.485 168.623H232.664V187.518H251.485V168.623Z" fill="#FAFAFA"/>
<path d="M272.372 147.451H253.55V166.346H272.372V147.451Z" fill="#FAFAFA"/>
<path d="M272.372 168.623H253.55V187.518H272.372V168.623Z" fill="#FAFAFA"/>
<path d="M293.579 147.451H274.758V166.346H293.579V147.451Z" fill="#FAFAFA"/>
<path d="M293.579 168.623H274.758V187.518H293.579V168.623Z" fill="#FAFAFA"/>
<path d="M314.786 147.451H295.965V166.346H314.786V147.451Z" fill="#FAFAFA"/>
<path d="M314.786 168.623H295.965V187.518H314.786V168.623Z" fill="#FAFAFA"/>
<path d="M336 147.451H317.179V166.346H336V147.451Z" fill="#FAFAFA"/>
<path d="M336 168.623H317.179V187.518H336V168.623Z" fill="#FAFAFA"/>
<path d="M321.378 322.692C321.378 322.79 253.09 322.874 168.875 322.874C84.661 322.874 16.3588 322.79 16.3588 322.692C16.3588 322.594 84.6331 322.51 168.875 322.51C253.118 322.51 321.378 322.594 321.378 322.692Z" fill="#263238"/>
<path d="M184.669 92.0536L191.199 92.0186C193.501 94.96 196.619 97.3132 200.379 98.6929C211.178 102.671 223.142 97.1031 227.104 86.2617C231.067 75.4204 225.521 63.4094 214.722 59.4314C203.923 55.4535 191.959 61.0212 187.997 71.8626C186.343 76.3868 186.35 81.1212 187.704 85.3863L184.676 92.0536H184.669Z" fill="white"/>
<path d="M184.669 92.0536C184.669 92.0536 184.746 91.8995 184.878 91.6124C185.018 91.3182 185.213 90.891 185.471 90.3378C185.995 89.2102 186.755 87.5574 187.753 85.4073H187.641V85.4283C187.662 85.4563 187.697 85.4703 187.732 85.4493C187.76 85.4353 187.767 85.4003 187.76 85.3723C186.95 82.767 186.392 79.1742 187.202 75.0842C187.404 74.0687 187.683 73.0252 188.067 71.9817C188.499 70.9591 188.911 69.8806 189.525 68.8581C190.683 66.7991 192.273 64.8031 194.296 63.1153C196.312 61.4274 198.761 60.0547 201.495 59.2213C204.223 58.3809 207.237 58.0868 210.271 58.486C216.326 59.2283 222.382 63.0732 225.611 68.9982C227.244 72.0097 228.186 75.3503 228.207 78.656C228.262 81.9546 227.537 85.1762 226.211 87.9986C224.893 90.835 222.926 93.2372 220.686 95.0861C218.44 96.942 215.901 98.2377 213.348 98.994C210.787 99.7504 208.22 99.9675 205.848 99.7784C205.548 99.7504 205.255 99.7224 204.962 99.6944C204.669 99.6734 204.376 99.6384 204.097 99.5683C203.532 99.4563 202.974 99.3442 202.423 99.2322C201.356 98.896 200.309 98.6158 199.361 98.1886C195.524 96.5498 192.894 94.0706 191.241 91.9836C191.227 91.9696 191.213 91.9626 191.192 91.9626C189.085 91.9906 187.46 92.0116 186.35 92.0256C185.806 92.0326 185.388 92.0396 185.095 92.0466C184.809 92.0466 184.662 92.0606 184.662 92.0606C184.662 92.0606 184.795 92.0606 185.074 92.0676C185.36 92.0676 185.771 92.0676 186.316 92.0676C187.432 92.0676 189.071 92.0676 191.199 92.0816L191.15 92.0606C192.796 94.1756 195.426 96.6899 199.291 98.3707C200.247 98.8049 201.3 99.0851 202.374 99.4353C202.925 99.5473 203.491 99.6664 204.063 99.7854C204.349 99.8555 204.642 99.8905 204.935 99.9115C205.228 99.9395 205.528 99.9745 205.827 100.003C208.227 100.206 210.829 100.003 213.417 99.2392C216.005 98.4828 218.58 97.1731 220.861 95.3032C223.135 93.4333 225.13 91.0031 226.47 88.1317C227.816 85.2672 228.562 82.0036 228.5 78.663C228.479 75.3153 227.53 71.9186 225.87 68.8721C225.688 68.4869 225.451 68.1368 225.214 67.7796L224.523 66.715L223.735 65.7276C223.477 65.3984 223.219 65.0692 222.919 64.7751C222.626 64.4739 222.34 64.1728 222.054 63.8786C221.775 63.5705 221.433 63.3324 221.126 63.0522C220.805 62.7931 220.505 62.506 220.177 62.2678C219.842 62.0367 219.5 61.7986 219.166 61.5675C216.452 59.7466 213.383 58.605 210.313 58.2198C207.244 57.8136 204.188 58.1218 201.426 58.9762C198.656 59.8306 196.18 61.2243 194.143 62.9332C192.099 64.642 190.501 66.666 189.329 68.7531C188.715 69.7826 188.297 70.8751 187.864 71.9116C187.481 72.9691 187.202 74.0267 187.006 75.0492C186.211 79.1812 186.797 82.802 187.634 85.4143L187.753 85.3583C187.732 85.3163 187.697 85.3093 187.662 85.3303C187.648 85.3303 187.641 85.3513 187.634 85.3583C186.664 87.5434 185.918 89.2242 185.409 90.3658C185.165 90.919 184.976 91.3463 184.844 91.6404C184.718 91.9275 184.662 92.0606 184.662 92.0606L184.669 92.0536Z" fill="#263238"/>
<path d="M196.947 79.9726L199.856 76.744L206.03 81.7165L215.196 71.1482L218.189 74.0757L205.89 87.6694L196.947 79.9726Z" fill="#FF725E"/>
<path d="M164.041 89.8755L111.449 93.0271C108.17 104.751 107.703 116.061 111.281 127.68C112.3 130.993 113.814 134.495 117.281 136.421C120.385 138.143 124.417 138.248 128.198 138.206C146.524 138.01 164.843 135.853 182.521 131.805C179.039 129.865 177.037 126.308 177.498 122.883C179.005 126.238 183.281 128.528 187.69 128.668C192.099 128.808 196.459 126.938 199.158 124.087C184.202 117.252 164.404 103.84 164.048 89.8755H164.041Z" fill="#263238"/>
<path d="M198.837 112.049C198.837 112.049 198.677 112.063 198.377 112.063C198.077 112.056 197.638 112.056 197.066 112.02C195.928 111.964 194.282 111.845 192.266 111.565C188.255 111.012 182.639 109.779 177.184 106.691C174.477 105.136 172.126 103.266 170.25 101.319C168.373 99.3652 166.95 97.3552 165.98 95.5553C165.004 93.7554 164.425 92.1937 164.118 91.0871C163.936 90.5408 163.867 90.0996 163.797 89.8125C163.734 89.5183 163.706 89.3643 163.713 89.3573C163.748 89.3503 163.902 89.9596 164.25 91.0451C164.599 92.1236 165.213 93.6574 166.204 95.4293C167.187 97.2011 168.617 99.1691 170.487 101.088C172.356 103.007 174.686 104.842 177.365 106.383C182.758 109.436 188.318 110.704 192.308 111.32C194.31 111.628 195.949 111.789 197.08 111.887C197.617 111.936 198.049 111.971 198.384 111.999C198.684 112.027 198.837 112.049 198.837 112.063V112.049Z" fill="#263238"/>
<path d="M207.941 214.208C207.746 214.257 192.426 209.369 192.426 209.369L187.613 213.186L200.749 218.914C200.749 218.914 206.546 219.58 209.329 221.226C212.106 222.871 207.948 214.208 207.948 214.208H207.941Z" fill="#263238"/>
<path d="M205.583 215.161C205.583 215.161 205.611 215.315 205.681 215.588C206.127 217.192 208.311 222.92 217.373 226.226C227.99 230.092 251.137 231.17 254.98 230.568C262.417 229.392 269.358 223.572 269.065 222.115" fill="#263238"/>
<path d="M269.072 222.115C268.814 224.482 254.394 224.846 236.864 222.927C219.333 221.008 205.332 217.528 205.583 215.161C205.841 212.793 220.261 212.429 237.792 214.348C255.322 216.267 269.323 219.748 269.072 222.115Z" fill="#455A64"/>
<path d="M246.805 220.462C247.97 219.286 249.623 218.585 248.758 217.22C248.521 217.682 247.356 217.668 246.951 218.025C246.546 218.382 245.423 217.955 244.872 217.815C244.189 217.633 243.819 216.946 243.861 216.323C243.903 215.7 244.258 215.133 244.614 214.593C245.34 213.494 246.107 212.415 246.916 211.365C247.209 210.979 247.516 210.58 247.586 210.125C247.656 209.67 247.411 209.138 246.902 209.005C246.449 208.885 245.981 209.11 245.591 209.334C243.854 210.321 242.152 211.575 241.517 213.305C241.119 214.39 241.175 215.588 240.687 216.652C240.205 217.717 238.81 218.627 237.638 218.116C236.92 217.801 236.578 217.073 236.389 216.386C236.201 215.7 236.096 214.971 235.622 214.397C235.148 213.823 234.143 213.515 233.536 213.977C232.497 214.761 233.822 216.484 232.936 217.402C232.56 217.794 231.883 217.864 231.325 217.71C230.767 217.556 230.306 217.213 229.881 216.862C226.958 214.474 224.809 211.372 223.749 207.996C223.616 207.562 223.491 207.121 223.205 206.749C222.919 206.378 222.43 206.091 221.921 206.147C221.119 206.238 220.756 207.093 220.756 207.807C220.756 209.817 222.221 211.568 223.63 213.165C225.249 214.992 226.867 216.827 228.479 218.655L230.683 221.212L240.156 223.306L246.567 221.975L246.812 220.462H246.805Z" fill="#FF725E"/>
<g opacity="0.6">
<path d="M246.805 220.462C247.97 219.286 249.623 218.585 248.758 217.22C248.521 217.682 247.356 217.668 246.951 218.025C246.546 218.382 245.423 217.955 244.872 217.815C244.189 217.633 243.819 216.946 243.861 216.323C243.903 215.7 244.258 215.133 244.614 214.593C245.34 213.494 246.107 212.415 246.916 211.365C247.209 210.979 247.516 210.58 247.586 210.125C247.656 209.67 247.411 209.138 246.902 209.005C246.449 208.885 245.981 209.11 245.591 209.334C243.854 210.321 242.152 211.575 241.517 213.305C241.119 214.39 241.175 215.588 240.687 216.652C240.205 217.717 238.81 218.627 237.638 218.116C236.92 217.801 236.578 217.073 236.389 216.386C236.201 215.7 236.096 214.971 235.622 214.397C235.148 213.823 234.143 213.515 233.536 213.977C232.497 214.761 233.822 216.484 232.936 217.402C232.56 217.794 231.883 217.864 231.325 217.71C230.767 217.556 230.306 217.213 229.881 216.862C226.958 214.474 224.809 211.372 223.749 207.996C223.616 207.562 223.491 207.121 223.205 206.749C222.919 206.378 222.43 206.091 221.921 206.147C221.119 206.238 220.756 207.093 220.756 207.807C220.756 209.817 222.221 211.568 223.63 213.165C225.249 214.992 226.867 216.827 228.479 218.655L230.683 221.212L240.156 223.306L246.567 221.975L246.812 220.462H246.805Z" fill="white"/>
</g>
<path d="M249.497 224.181C249.707 222.899 250.865 221.779 252.302 221.471C252.783 221.366 253.306 221.345 253.739 221.128C254.171 220.91 254.471 220.392 254.192 220.028C253.92 219.671 253.32 219.699 252.832 219.769C251.723 219.93 250.62 220.091 249.511 220.245C250.404 219.349 251.297 218.445 252.183 217.549C252.539 217.192 252.909 216.708 252.65 216.288C252.406 215.889 251.757 215.875 251.248 215.966C249.504 216.274 247.914 217.171 246.86 218.417C245.919 219.538 245.381 220.938 244.189 221.849C243.107 222.675 241.538 222.976 240.156 222.633C238.775 222.29 237.617 221.31 237.185 220.105C237.003 219.594 236.926 219.027 236.522 218.627C235.761 217.864 234.213 218.193 233.543 219.02C232.88 219.846 232.866 220.938 232.957 221.954C229.909 217.969 226.511 213.809 221.426 212.051C220.533 211.743 219.563 211.512 218.614 211.659C217.673 211.806 216.766 212.415 216.612 213.242C216.438 214.208 217.275 215.091 218.189 215.658C219.926 216.736 222.054 217.206 223.93 218.088C225.807 218.97 227.844 220.287 227.725 222.15C227.725 222.15 236.878 223.544 241.412 223.663C245.946 223.782 249.49 224.16 249.49 224.16L249.497 224.181Z" fill="#FF725E"/>
<g opacity="0.8">
<path d="M249.497 224.181C249.707 222.899 250.865 221.779 252.302 221.471C252.783 221.366 253.306 221.345 253.739 221.128C254.171 220.91 254.471 220.392 254.192 220.028C253.92 219.671 253.32 219.699 252.832 219.769C251.723 219.93 250.62 220.091 249.511 220.245C250.404 219.349 251.297 218.445 252.183 217.549C252.539 217.192 252.909 216.708 252.65 216.288C252.406 215.889 251.757 215.875 251.248 215.966C249.504 216.274 247.914 217.171 246.86 218.417C245.919 219.538 245.381 220.938 244.189 221.849C243.107 222.675 241.538 222.976 240.156 222.633C238.775 222.29 237.617 221.31 237.185 220.105C237.003 219.594 236.926 219.027 236.522 218.627C235.761 217.864 234.213 218.193 233.543 219.02C232.88 219.846 232.866 220.938 232.957 221.954C229.909 217.969 226.511 213.809 221.426 212.051C220.533 211.743 219.563 211.512 218.614 211.659C217.673 211.806 216.766 212.415 216.612 213.242C216.438 214.208 217.275 215.091 218.189 215.658C219.926 216.736 222.054 217.206 223.93 218.088C225.807 218.97 227.844 220.287 227.725 222.15C227.725 222.15 236.878 223.544 241.412 223.663C245.946 223.782 249.49 224.16 249.49 224.16L249.497 224.181Z" fill="white"/>
</g>
<path d="M215.957 229.938C215.95 229.98 215.433 229.938 214.638 229.714C213.843 229.49 212.769 229.034 211.722 228.299C210.683 227.564 209.887 226.709 209.399 226.037C208.911 225.365 208.702 224.888 208.736 224.867C208.834 224.797 209.887 226.583 211.931 227.998C213.954 229.441 215.991 229.819 215.957 229.931V229.938Z" fill="#263238"/>
<path d="M214.227 231.591C214.22 231.633 213.703 231.591 212.908 231.367C212.113 231.142 211.039 230.687 209.992 229.952C208.953 229.217 208.157 228.362 207.669 227.69C207.181 227.017 206.972 226.541 207.006 226.52C207.104 226.45 208.157 228.236 210.201 229.651C212.224 231.093 214.261 231.472 214.227 231.584V231.591Z" fill="#263238"/>
<path d="M275.567 224.622C275.567 224.622 275.525 224.825 275.392 225.162C275.26 225.505 275.03 225.981 274.716 226.555C274.088 227.704 273.041 229.21 271.604 230.61C270.16 232.004 268.633 233.012 267.468 233.601C266.889 233.902 266.4 234.112 266.058 234.231C265.717 234.357 265.521 234.413 265.514 234.392C265.493 234.336 266.233 234.021 267.349 233.37C268.465 232.725 269.944 231.71 271.353 230.344C272.762 228.971 273.823 227.522 274.492 226.422C275.169 225.323 275.511 224.587 275.567 224.615V224.622Z" fill="#263238"/>
<path d="M278.915 226.065C278.957 226.079 278.811 226.569 278.455 227.305C278.099 228.04 277.499 229.013 276.669 229.952C275.839 230.89 274.96 231.612 274.276 232.067C273.592 232.522 273.132 232.725 273.111 232.683C273.048 232.585 274.792 231.563 276.397 229.714C278.022 227.879 278.811 226.009 278.915 226.065Z" fill="#263238"/>
<path d="M262.117 179.926L268.598 178.126C268.598 178.126 273.948 178.939 275.33 177.909C276.711 176.88 276.055 176.284 276.055 176.284C278.971 175.178 277.932 173.882 277.932 173.882C277.932 173.882 280.827 173.658 280.882 171.368C280.91 170.03 269.839 167.817 269.839 167.817C269.839 167.817 269.944 166.381 271.074 165.569C272.204 164.757 278.734 166.332 280.736 165.716C282.738 165.107 282.599 163.125 282.599 163.125C282.599 163.125 268.898 160.33 266.017 161.535C263.128 162.74 249.281 168.538 247.167 171.347L251.772 180.991C251.772 180.991 252.051 181.138 254.346 181.761C256.641 182.391 262.131 179.933 262.131 179.933L262.117 179.926Z" fill="#FFBF9D"/>
<path d="M254.674 177.538C254.674 177.482 255.204 177.496 256.145 177.363C257.08 177.23 258.441 176.929 259.933 176.144C260.68 175.752 261.447 175.234 262.18 174.575C262.549 174.253 262.898 173.875 263.233 173.476C263.575 173.07 263.903 172.614 264.342 172.194C264.761 171.781 265.41 171.417 266.086 171.445C266.728 171.452 267.328 171.578 267.942 171.704C269.17 171.956 270.37 172.376 271.597 172.194C272.393 172.089 273.16 171.774 273.725 171.27C274.297 170.794 274.646 170.009 274.353 169.519L274.527 169.652C270.628 168.707 267.147 168.286 264.691 167.922C263.547 167.754 262.591 167.614 261.803 167.502C261.133 167.39 260.764 167.32 260.771 167.285C260.771 167.25 261.147 167.257 261.824 167.306C262.501 167.355 263.491 167.439 264.733 167.558C267.209 167.824 270.704 168.16 274.667 169.085L274.778 169.113L274.841 169.218C275.113 169.659 275.071 170.198 274.904 170.626C274.737 171.06 274.451 171.424 274.116 171.725C273.446 172.327 272.567 172.685 271.667 172.804C270.976 172.902 270.293 172.832 269.644 172.72C269.023 172.579 268.409 172.432 267.809 172.299C267.216 172.173 266.623 172.047 266.079 172.04C265.556 172.012 265.103 172.264 264.712 172.621C264.321 172.979 263.993 173.42 263.631 173.833C263.268 174.246 262.898 174.631 262.501 174.968C261.719 175.647 260.903 176.158 260.115 176.543C258.538 177.314 257.122 177.552 256.159 177.615C255.19 177.671 254.66 177.58 254.66 177.552L254.674 177.538Z" fill="#FF9A6C"/>
<path d="M267.921 172.159C268.075 172.215 267.761 173.511 267.056 174.989C266.351 176.466 265.542 177.524 265.403 177.44C265.256 177.349 265.828 176.172 266.512 174.73C267.203 173.287 267.761 172.103 267.921 172.159Z" fill="#FF9A6C"/>
<path d="M275.441 176.011C275.406 176.179 273.613 175.962 271.409 175.717C269.198 175.465 267.405 175.283 267.412 175.108C267.412 174.947 269.246 174.863 271.479 175.115C273.711 175.36 275.476 175.843 275.448 176.004L275.441 176.011Z" fill="#FF9A6C"/>
<path d="M278.769 173.994C278.748 174.162 276.453 173.966 273.648 173.567C270.844 173.168 268.591 172.713 268.612 172.544C268.633 172.376 270.928 172.572 273.732 172.972C276.536 173.371 278.79 173.826 278.769 173.994Z" fill="#FF9A6C"/>
<path d="M269.581 164.652C269.742 164.652 269.867 165.492 269.742 166.514C269.623 167.537 269.302 168.321 269.142 168.286C268.981 168.251 269.03 167.432 269.142 166.444C269.26 165.457 269.407 164.652 269.574 164.652H269.581Z" fill="#FF9A6C"/>
<path d="M192.594 167.796L211.569 177.902L248.611 170.689L253.871 181.621C253.871 181.621 220.017 196.51 210.564 196.678C201.112 196.839 183.923 185.655 183.923 185.655L192.587 167.796H192.594Z" fill="#FFBF9D"/>
<path d="M238.35 178.406C238.35 178.406 233.85 177.531 233.034 180.907C232.218 184.282 236.257 185.13 236.257 185.13C236.257 185.13 235.51 187.462 239.403 188.68C243.289 189.899 244.049 185.662 244.049 185.662C244.049 185.662 247.705 186.867 247.984 184.499C248.395 180.991 245.556 180.711 245.556 180.711C245.556 180.711 248.36 177.279 243.777 175.92C239.194 174.561 238.35 178.406 238.35 178.406ZM243.212 177.405C245.856 177.965 244.119 181.278 244.119 181.278C244.119 181.278 247.112 181.964 246.519 183.736C245.926 185.508 242.982 184.352 242.982 184.352C242.982 184.352 244.063 187.378 240.436 187.413C236.808 187.448 238.308 184.317 238.308 184.317C238.308 184.317 235.364 184.59 234.743 181.782C234.115 178.974 239.201 179.807 239.201 179.807C239.354 177.426 240.561 176.845 243.212 177.405Z" fill="#FF725E"/>
<g opacity="0.3">
<path d="M238.35 178.406C238.35 178.406 233.85 177.531 233.034 180.907C232.218 184.282 236.257 185.13 236.257 185.13C236.257 185.13 235.51 187.462 239.403 188.68C243.289 189.899 244.049 185.662 244.049 185.662C244.049 185.662 247.705 186.867 247.984 184.499C248.395 180.991 245.556 180.711 245.556 180.711C245.556 180.711 248.36 177.279 243.777 175.92C239.194 174.561 238.35 178.406 238.35 178.406ZM243.212 177.405C245.856 177.965 244.119 181.278 244.119 181.278C244.119 181.278 247.112 181.964 246.519 183.736C245.926 185.508 242.982 184.352 242.982 184.352C242.982 184.352 244.063 187.378 240.436 187.413C236.808 187.448 238.308 184.317 238.308 184.317C238.308 184.317 235.364 184.59 234.743 181.782C234.115 178.974 239.201 179.807 239.201 179.807C239.354 177.426 240.561 176.845 243.212 177.405Z" fill="black"/>
</g>
<path d="M238.42 177.531C238.42 177.531 233.92 176.648 233.104 180.024C232.288 183.4 236.327 184.247 236.327 184.247C236.327 184.247 235.58 186.579 239.473 187.798C243.359 189.017 244.126 184.78 244.126 184.78C244.126 184.78 247.781 185.984 248.06 183.617C248.472 180.108 245.633 179.828 245.633 179.828C245.633 179.828 248.437 176.396 243.854 175.038C239.271 173.679 238.426 177.524 238.426 177.524L238.42 177.531ZM243.275 176.529C245.926 177.097 244.182 180.409 244.182 180.409C244.182 180.409 247.174 181.096 246.581 182.861C245.988 184.632 243.045 183.477 243.045 183.477C243.045 183.477 244.126 186.502 240.498 186.544C236.871 186.586 238.371 183.442 238.371 183.442C238.371 183.442 235.427 183.715 234.806 180.914C234.178 178.105 239.264 178.939 239.264 178.939C239.403 176.557 240.624 175.976 243.275 176.536V176.529Z" fill="#FF725E"/>
<path d="M240.47 146.218C240.47 146.218 235.943 146.933 236.327 150.385C236.71 153.838 240.791 153.25 240.791 153.25C240.791 153.25 240.889 155.694 244.956 155.512C249.023 155.33 248.298 151.079 248.298 151.079C248.298 151.079 252.141 150.96 251.597 148.642C250.795 145.203 248.025 145.91 248.025 145.91C248.025 145.91 249.497 141.722 244.726 142.016C239.954 142.303 240.47 146.211 240.47 146.211V146.218ZM244.698 143.613C247.377 143.235 246.867 146.947 246.867 146.947C246.867 146.947 249.909 146.562 249.958 148.432C250.007 150.301 246.84 150.224 246.84 150.224C246.84 150.224 248.884 152.697 245.486 153.978C242.089 155.253 242.431 151.793 242.431 151.793C242.431 151.793 239.759 153.061 238.217 150.631C236.675 148.2 241.74 147.248 241.74 147.248C241.077 144.958 242.012 143.998 244.698 143.62V143.613Z" fill="#FF725E"/>
<g opacity="0.3">
<path d="M240.47 146.218C240.47 146.218 235.943 146.933 236.327 150.385C236.71 153.838 240.791 153.25 240.791 153.25C240.791 153.25 240.889 155.694 244.956 155.512C249.023 155.33 248.298 151.079 248.298 151.079C248.298 151.079 252.141 150.96 251.597 148.642C250.795 145.203 248.025 145.91 248.025 145.91C248.025 145.91 249.497 141.722 244.726 142.016C239.954 142.303 240.47 146.211 240.47 146.211V146.218ZM244.698 143.613C247.377 143.235 246.867 146.947 246.867 146.947C246.867 146.947 249.909 146.562 249.958 148.432C250.007 150.301 246.84 150.224 246.84 150.224C246.84 150.224 248.884 152.697 245.486 153.978C242.089 155.253 242.431 151.793 242.431 151.793C242.431 151.793 239.759 153.061 238.217 150.631C236.675 148.2 241.74 147.248 241.74 147.248C241.077 144.958 242.012 143.998 244.698 143.62V143.613Z" fill="black"/>
</g>
<path d="M240.233 145.378C240.233 145.378 235.706 146.092 236.089 149.545C236.473 152.998 240.554 152.409 240.554 152.409C240.554 152.409 240.652 154.854 244.719 154.672C248.786 154.49 248.067 150.245 248.067 150.245C248.067 150.245 251.911 150.126 251.367 147.808C250.565 144.37 247.795 145.077 247.795 145.077C247.795 145.077 249.267 140.889 244.496 141.183C239.724 141.47 240.233 145.378 240.233 145.378ZM244.461 142.766C247.146 142.388 246.63 146.099 246.63 146.099C246.63 146.099 249.672 145.714 249.721 147.584C249.769 149.447 246.602 149.377 246.602 149.377C246.602 149.377 248.646 151.856 245.256 153.131C241.859 154.412 242.2 150.946 242.2 150.946C242.2 150.946 239.529 152.213 237.987 149.79C236.445 147.367 241.51 146.408 241.51 146.408C240.833 144.124 241.782 143.158 244.461 142.773V142.766Z" fill="#FF725E"/>
<path d="M233.39 162.838C233.39 162.838 230.53 162.964 230.362 165.044C230.188 167.124 230.99 170.527 235.957 171.27C240.917 172.012 241.517 165.807 241.517 165.807C241.517 165.807 240.087 162.558 233.39 162.838Z" fill="#E0E0E0"/>
<g opacity="0.21">
<path d="M236.201 168.447C238.95 168.574 240.582 167.383 241.398 166.507C241.482 166.08 241.517 165.814 241.517 165.814C241.517 165.814 240.08 162.565 233.39 162.845C233.39 162.845 230.53 162.971 230.362 165.051C230.362 165.191 230.362 165.338 230.341 165.478C231.388 166.627 233.383 168.314 236.208 168.447H236.201Z" fill="#263238"/>
</g>
<path d="M233.934 161.486L233.118 165.079C233.118 165.079 234.541 166.767 236.62 166.648C238.698 166.528 238.692 165.751 238.692 165.751L239.55 162.067C239.55 162.067 237.715 160.716 235.699 160.66C233.683 160.604 233.941 161.479 233.941 161.479L233.934 161.486Z" fill="#E0E0E0"/>
<path d="M218.468 187.056C218.468 187.056 216.654 189.276 218.084 190.789C219.514 192.301 222.577 193.975 226.435 190.753C230.292 187.532 226.086 182.952 226.086 182.952C226.086 182.952 222.716 181.859 218.461 187.049L218.468 187.056Z" fill="#E0E0E0"/>
<g opacity="0.21">
<path d="M224.509 188.687C226.435 186.719 226.644 184.702 226.539 183.505C226.274 183.155 226.1 182.952 226.1 182.952C226.1 182.952 222.73 181.859 218.475 187.056C218.475 187.056 216.661 189.276 218.091 190.789C218.196 190.88 218.308 190.978 218.398 191.09C219.947 191.076 222.528 190.704 224.516 188.68L224.509 188.687Z" fill="#263238"/>
</g>
<path d="M217.826 185.739L219.954 188.75C219.954 188.75 222.158 188.807 223.456 187.182C224.753 185.55 224.167 185.032 224.167 185.032L222.005 181.936C222.005 181.936 219.779 182.412 218.398 183.883C217.01 185.354 217.833 185.746 217.833 185.746L217.826 185.739Z" fill="#E0E0E0"/>
<path d="M250.572 186.902C250.572 186.902 252.511 188.274 253.662 187C254.82 185.725 256.013 183.085 253.132 180.073C250.251 177.062 246.735 180.83 246.735 180.83C246.735 180.83 246.044 183.694 250.572 186.902Z" fill="#E0E0E0"/>
<g opacity="0.21">
<path d="M251.548 181.796C250.369 180.696 248.758 180.192 247.16 180.423C246.895 180.654 246.735 180.823 246.735 180.823C246.735 180.823 246.044 183.687 250.572 186.895C250.572 186.895 252.511 188.267 253.662 186.993C253.739 186.909 253.816 186.811 253.892 186.712C253.781 184.829 252.937 183.057 251.541 181.796H251.548Z" fill="#263238"/>
</g>
<path d="M249.525 187.532L251.869 185.585C251.792 184.478 251.241 183.456 250.362 182.777C248.939 181.803 248.556 182.314 248.556 182.314L246.135 184.296C246.477 185.403 247.105 186.397 247.949 187.175C249.253 188.211 249.518 187.525 249.518 187.525L249.525 187.532Z" fill="#E0E0E0"/>
<path d="M239.278 210.958C239.278 210.958 234.345 212.926 231.053 206.658C227.76 200.383 228.255 194.514 232.727 193.184C237.199 191.846 238.664 194.094 239.577 195.719C240.491 197.344 242.682 200.972 243.079 204.256C243.282 206.105 242.263 210.041 239.278 210.966V210.958Z" fill="#AE7461"/>
<path opacity="0.3" d="M239.201 209.145C240.157 208.71 240.945 207.975 241.44 207.044L241.419 207.079L241.454 207.03L241.531 206.91C241.58 206.833 241.615 206.735 241.649 206.651L241.691 206.581L241.656 206.637C241.942 205.811 242.012 204.928 241.866 204.067C241.81 203.549 241.684 203.045 241.489 202.568C241.294 202.092 240.924 201.7 240.457 201.483C239.919 201.28 239.312 201.336 238.824 201.644C238.343 201.952 237.973 202.4 237.764 202.94C237.561 203.43 237.478 203.955 237.296 204.452C237.15 204.964 236.801 205.398 236.341 205.657C235.943 205.839 235.483 205.811 235.071 205.958C234.346 206.252 233.948 207.037 234.136 207.8C234.325 208.493 234.973 208.962 235.636 209.222C236.794 209.67 238.078 209.642 239.215 209.152L239.201 209.145Z" fill="#6F4439"/>
<path opacity="0.3" d="M234.143 193.898C233.104 194.052 232.148 194.549 231.43 195.306L231.45 195.271L231.416 195.32L231.318 195.425C231.269 195.509 231.192 195.572 231.137 195.642L231.095 195.712L231.13 195.656C230.627 196.363 230.306 197.183 230.202 198.044C230.111 198.548 230.09 199.067 230.153 199.578C230.216 200.096 230.46 200.565 230.851 200.909C231.311 201.252 231.904 201.364 232.455 201.21C232.999 201.049 233.48 200.712 233.829 200.257C234.157 199.844 234.38 199.361 234.68 198.927C234.966 198.478 235.413 198.156 235.936 198.037C236.362 197.974 236.801 198.128 237.241 198.093C238.015 198.009 238.615 197.372 238.65 196.587C238.657 195.866 238.168 195.243 237.596 194.808C236.606 194.073 235.371 193.751 234.15 193.912L234.143 193.898Z" fill="#6F4439"/>
<path opacity="0.3" d="M234.952 202.106C234.757 202.106 234.562 202.148 234.38 202.225L233.25 202.61C232.957 202.708 232.629 202.848 232.532 203.157C232.476 203.36 232.546 203.577 232.72 203.696C232.887 203.815 233.097 203.857 233.292 203.801H233.243C233.864 203.773 234.464 203.584 234.987 203.248C235.141 203.164 235.266 203.045 235.371 202.897C235.469 202.75 235.49 202.568 235.427 202.4C235.336 202.225 235.155 202.106 234.952 202.106Z" fill="#6F4439"/>
<path d="M230.16 196.251C230.16 196.251 230.041 196.622 229.888 197.232C229.49 198.821 229.532 200.488 230.006 202.05C230.188 202.652 230.348 203.003 230.327 203.017C230.271 202.947 230.23 202.862 230.195 202.778C230.083 202.554 229.992 202.323 229.909 202.085C229.372 200.509 229.33 198.807 229.79 197.204C229.86 196.966 229.944 196.727 230.041 196.496C230.069 196.405 230.111 196.328 230.167 196.251H230.16Z" fill="white"/>
<path d="M231.492 194.57C231.492 194.57 231.381 194.795 231.171 195.012C230.969 195.229 230.781 195.369 230.739 195.341C230.697 195.313 230.85 195.117 231.06 194.9C231.269 194.682 231.464 194.542 231.492 194.57Z" fill="white"/>
<path d="M232.685 207.73C232.218 207.443 231.883 206.981 231.757 206.441C231.925 206.644 232.078 206.861 232.211 207.093C232.385 207.296 232.539 207.506 232.685 207.73Z" fill="white"/>
<path d="M245.64 163.16C245.64 163.16 241.775 161.339 243.624 155.939C245.479 150.54 249.183 147.605 252.427 149.496C255.671 151.394 255.162 153.495 254.722 154.931C254.276 156.366 253.362 159.658 251.66 161.696C250.69 162.838 247.83 164.399 245.64 163.153V163.16Z" fill="#AE7461"/>
<path opacity="0.3" d="M246.658 162.116C247.439 162.445 248.304 162.501 249.121 162.277H249.086H249.135L249.246 162.256C249.323 162.242 249.393 162.207 249.463 162.179L249.525 162.165H249.469C250.111 161.885 250.662 161.444 251.088 160.884C251.36 160.569 251.583 160.218 251.758 159.833C251.925 159.455 251.953 159.021 251.82 158.622C251.646 158.194 251.276 157.865 250.83 157.746C250.383 157.627 249.916 157.662 249.49 157.837C249.093 157.984 248.737 158.229 248.346 158.397C247.963 158.594 247.523 158.629 247.112 158.495C246.791 158.362 246.553 158.075 246.233 157.914C245.661 157.648 244.984 157.844 244.642 158.376C244.342 158.867 244.419 159.511 244.642 160.043C245.019 160.968 245.737 161.71 246.651 162.109L246.658 162.116Z" fill="#6F4439"/>
<path opacity="0.3" d="M252.783 150.736C252.12 150.21 251.304 149.923 250.46 149.909H250.495H250.446H250.335C250.258 149.923 250.181 149.909 250.104 149.923L250.042 149.937H250.097C249.407 150.021 248.751 150.287 248.186 150.694C247.837 150.918 247.53 151.191 247.258 151.506C246.993 151.828 246.847 152.234 246.867 152.655C246.916 153.117 247.181 153.53 247.579 153.768C247.977 153.999 248.437 154.097 248.89 154.055C249.309 154.02 249.721 153.887 250.139 153.824C250.558 153.74 250.997 153.831 251.353 154.069C251.625 154.286 251.779 154.63 252.037 154.868C252.511 155.281 253.216 155.281 253.697 154.868C254.123 154.476 254.22 153.845 254.157 153.264C254.046 152.276 253.55 151.366 252.783 150.736Z" fill="#6F4439"/>
<path opacity="0.3" d="M248.43 155.729C248.318 155.617 248.193 155.526 248.046 155.456L247.195 155.001C246.979 154.882 246.714 154.763 246.484 154.875C246.337 154.952 246.247 155.113 246.268 155.281C246.288 155.442 246.379 155.589 246.526 155.673L246.498 155.645C246.854 155.995 247.3 156.24 247.781 156.366C247.914 156.408 248.053 156.422 248.193 156.401C248.332 156.38 248.451 156.289 248.514 156.163C248.57 156.009 248.535 155.841 248.43 155.722V155.729Z" fill="#6F4439"/>
<path d="M249.218 149.678C249.218 149.678 248.932 149.811 248.5 150.056C247.356 150.694 246.4 151.639 245.744 152.781C245.493 153.215 245.375 153.509 245.361 153.502C245.375 153.432 245.395 153.355 245.423 153.292C245.493 153.103 245.577 152.921 245.675 152.746C246.302 151.562 247.272 150.596 248.465 149.986C248.639 149.895 248.828 149.811 249.016 149.748C249.086 149.713 249.156 149.692 249.225 149.685L249.218 149.678Z" fill="white"/>
<path d="M250.934 149.538C250.934 149.538 250.739 149.594 250.502 149.594C250.265 149.594 250.076 149.559 250.069 149.517C250.062 149.475 250.265 149.461 250.509 149.461C250.753 149.461 250.941 149.503 250.941 149.531L250.934 149.538Z" fill="white"/>
<path d="M243.889 157.494C243.798 157.06 243.889 156.605 244.133 156.24C244.105 156.45 244.063 156.661 244 156.864C243.979 157.074 243.944 157.284 243.889 157.494Z" fill="white"/>
<path d="M229.546 163.412C227.286 164.631 224.46 163.783 223.247 161.507C222.033 159.238 222.877 156.401 225.144 155.183C227.397 153.964 230.202 154.805 231.429 157.06C232.657 159.322 231.827 162.158 229.574 163.398C229.567 163.398 229.553 163.405 229.546 163.412Z" fill="#FF9A6C"/>
<g opacity="0.5">
<path d="M229.546 163.412C227.286 164.631 224.46 163.783 223.247 161.507C222.033 159.238 222.877 156.401 225.144 155.183C227.397 153.964 230.202 154.805 231.429 157.06C232.657 159.322 231.827 162.158 229.574 163.398C229.567 163.398 229.553 163.405 229.546 163.412Z" fill="#FF725E"/>
</g>
<path d="M229.12 162.614C226.86 163.832 224.035 162.985 222.821 160.709C221.607 158.439 222.451 155.603 224.719 154.384C226.972 153.166 229.776 154.006 231.004 156.261C232.232 158.524 231.402 161.36 229.148 162.6C229.141 162.6 229.127 162.607 229.12 162.614Z" fill="#FF9A6C"/>
<g opacity="0.3">
<path d="M228.207 160.947C226.888 161.661 225.242 161.178 224.53 159.854C223.819 158.531 224.3 156.878 225.619 156.163C226.937 155.449 228.583 155.932 229.295 157.256C230.006 158.58 229.518 160.225 228.207 160.947Z" fill="white"/>
</g>
<path d="M227.739 160.057C226.435 160.316 225.381 160.001 225.395 159.357C224.942 158.517 225.256 157.459 226.093 157.004C226.93 156.549 227.983 156.864 228.437 157.704C228.89 158.545 228.583 159.595 227.746 160.05C227.746 160.05 227.746 160.05 227.739 160.05V160.057Z" fill="#FF9A6C"/>
<path d="M254.513 166.073C256.564 165.058 259.055 165.905 260.066 167.964C261.078 170.023 260.233 172.523 258.183 173.539C256.132 174.554 253.641 173.707 252.63 171.648C251.618 169.589 252.462 167.089 254.513 166.073Z" fill="#FF9A6C"/>
<g opacity="0.5">
<path d="M254.513 166.073C256.564 165.058 259.055 165.905 260.066 167.964C261.078 170.023 260.233 172.523 258.183 173.539C256.132 174.554 253.641 173.707 252.63 171.648C251.618 169.589 252.462 167.089 254.513 166.073Z" fill="#FF725E"/>
</g>
<path d="M257.938 172.776C255.929 173.861 253.418 173.105 252.337 171.081C251.255 169.064 252.009 166.542 254.025 165.457C256.027 164.378 258.524 165.121 259.613 167.124C260.708 169.134 259.968 171.662 257.966 172.755C257.959 172.755 257.952 172.762 257.945 172.769L257.938 172.776Z" fill="#FF9A6C"/>
<g opacity="0.3">
<path d="M253.683 168.461C254.067 167.187 255.406 166.458 256.676 166.844C257.945 167.229 258.671 168.573 258.287 169.848C257.903 171.123 256.564 171.851 255.294 171.466C254.025 171.081 253.299 169.736 253.683 168.461Z" fill="white"/>
</g>
<path d="M256.717 170.506C255.971 170.913 255.036 170.633 254.639 169.883C254.234 169.134 254.513 168.195 255.26 167.796C256.006 167.39 256.934 167.67 257.338 168.419C257.743 169.169 257.471 170.107 256.724 170.513L256.717 170.506Z" fill="#FF9A6C"/>
<path d="M216.557 195.509C216.347 197.736 217.191 199.935 218.838 201.441C220.4 202.926 222.577 203.556 224.684 203.129C224.865 199.095 221.761 195.677 217.749 195.495C217.352 195.474 216.954 195.495 216.557 195.537V195.516V195.509Z" fill="#455A64"/>
<path d="M218.377 197.043C218.447 196.987 219.703 198.625 221.524 200.376C223.344 202.127 225.019 203.339 224.963 203.409C224.551 203.227 224.16 202.989 223.812 202.701C222.047 201.42 220.463 199.893 219.124 198.17C218.817 197.834 218.566 197.456 218.37 197.043H218.377Z" fill="#263238"/>
<path d="M231.625 140.258C230.132 141.918 229.504 144.187 229.923 146.38C230.292 148.509 231.667 150.315 233.613 151.24C236.159 148.116 235.706 143.515 232.595 140.959C232.288 140.707 231.96 140.476 231.611 140.279L231.625 140.258Z" fill="#455A64"/>
<path d="M232.169 142.584C232.26 142.584 232.288 144.65 232.713 147.143C233.139 149.636 233.746 151.618 233.669 151.639C233.446 151.247 233.278 150.82 233.167 150.385C232.511 148.298 232.155 146.127 232.106 143.942C232.064 143.487 232.085 143.032 232.176 142.591L232.169 142.584Z" fill="#263238"/>
<path d="M274.89 179.716C272.616 177.951 269.644 177.363 266.875 178.119C264.182 178.813 261.984 180.774 260.994 183.379C265.27 186.369 271.151 185.319 274.13 181.026C274.416 180.612 274.674 180.171 274.89 179.716Z" fill="#455A64"/>
<path d="M271.981 180.654C271.995 180.774 269.351 180.998 266.184 181.81C263.017 182.622 260.547 183.603 260.499 183.491C260.987 183.162 261.517 182.903 262.075 182.72C263.38 182.188 264.719 181.754 266.086 181.418C267.454 181.068 268.842 180.823 270.244 180.668C270.823 180.584 271.402 180.577 271.981 180.654Z" fill="#263238"/>
<path d="M228.06 175.892C228.046 176.887 226.504 177.671 224.621 177.643C222.737 177.615 221.224 176.782 221.238 175.794C221.203 176.172 221.196 176.557 221.217 176.936C221.203 177.93 222.716 178.764 224.6 178.792C226.483 178.827 228.025 178.042 228.039 177.041C228.067 176.655 228.074 176.27 228.06 175.892Z" fill="#455A64"/>
<path d="M224.663 175.178C226.17 175.199 227.439 175.738 227.879 176.466C227.997 176.298 228.06 176.102 228.067 175.899C228.081 174.905 226.567 174.071 224.684 174.043C222.8 174.008 221.259 174.793 221.238 175.801C221.238 176.004 221.293 176.2 221.405 176.375C221.872 175.661 223.156 175.157 224.663 175.185V175.178Z" fill="#263238"/>
<path d="M248.179 167.026C248.57 167.404 248.305 168.321 247.586 169.071C246.867 169.82 245.961 170.121 245.57 169.743C245.709 169.897 245.856 170.044 246.016 170.177C246.407 170.555 247.314 170.261 248.032 169.512C248.751 168.763 249.016 167.845 248.625 167.46C248.486 167.306 248.332 167.159 248.172 167.019L248.179 167.026Z" fill="#455A64"/>
<path d="M246.609 168.125C247.188 167.523 247.879 167.215 248.332 167.306C248.312 167.194 248.256 167.096 248.172 167.019C247.781 166.641 246.874 166.935 246.156 167.684C245.437 168.433 245.172 169.351 245.57 169.736C245.654 169.813 245.751 169.862 245.863 169.883C245.751 169.428 246.03 168.721 246.609 168.118V168.125Z" fill="#263238"/>
<path d="M253.425 131.651C253.69 132.429 252.72 133.465 251.255 133.969C249.79 134.474 248.388 134.256 248.123 133.493C248.2 133.794 248.305 134.095 248.423 134.383C248.688 135.16 250.09 135.37 251.555 134.866C253.02 134.362 253.99 133.318 253.725 132.548C253.641 132.246 253.544 131.945 253.418 131.651H253.425Z" fill="#455A64"/>
<path d="M250.6 132.057C251.772 131.651 252.902 131.707 253.439 132.148C253.481 131.987 253.474 131.819 253.425 131.658C253.16 130.881 251.758 130.671 250.293 131.175C248.828 131.679 247.858 132.723 248.123 133.5C248.179 133.654 248.277 133.794 248.409 133.892C248.57 133.206 249.421 132.464 250.593 132.057H250.6Z" fill="#263238"/>
<path d="M256.411 188.919L246.756 196.734C246.456 196.973 246.4 197.407 246.616 197.722C247.237 198.618 248.193 199.473 249.567 200.236C256.543 204.109 260.924 196.846 259.954 192.616C259.641 191.258 258.678 189.871 257.283 188.891C257.018 188.701 256.662 188.722 256.411 188.926V188.919Z" fill="#FF725E"/>
<path opacity="0.3" d="M256.411 188.919L246.756 196.734C246.456 196.973 246.4 197.407 246.616 197.722C247.237 198.618 248.193 199.473 249.567 200.236C256.543 204.109 260.924 196.846 259.954 192.616C259.641 191.258 258.678 189.871 257.283 188.891C257.018 188.701 256.662 188.722 256.411 188.926V188.919Z" fill="black"/>
<path d="M255.901 188.449L246.247 196.265C245.947 196.503 245.891 196.938 246.107 197.253C246.728 198.149 247.684 199.004 249.058 199.767C256.034 203.64 260.415 196.377 259.445 192.147C259.131 190.788 258.169 189.402 256.773 188.421C256.508 188.232 256.153 188.253 255.901 188.456V188.449Z" fill="#FF725E"/>
<path opacity="0.3" d="M255.085 189.381C255.336 189.017 258.482 190.151 258.469 192.791C258.455 195.425 257.715 197.393 256.55 197.456C255.385 197.519 253.927 195.369 253.871 193.401C253.816 191.433 254.785 189.815 255.085 189.381Z" fill="black"/>
<path opacity="0.3" d="M247.244 196.132C247.265 195.621 249.916 194.164 251.674 194.493C253.439 194.823 255.476 197.743 255.399 198.52C255.322 199.326 252.037 199.753 250.397 199.193C248.758 198.632 247.209 196.889 247.237 196.132H247.244Z" fill="black"/>
<path d="M250.46 195.327C250.251 195.103 248.221 196.447 248.674 196.91C249.128 197.372 250.914 195.81 250.46 195.327Z" fill="#FF725E"/>
<path d="M253.09 196.412C253.376 196.328 254.374 198.506 253.634 198.541C252.895 198.569 252.811 196.496 253.09 196.412Z" fill="#FF725E"/>
<path d="M251.89 195.796C252.239 195.866 251.925 198.709 250.969 198.611C250.014 198.513 251.541 195.726 251.89 195.796Z" fill="#FF725E"/>
<path d="M254.967 192.525C254.792 191.986 257.401 191.342 257.478 191.909C257.555 192.476 255.197 193.247 254.967 192.525Z" fill="#FF725E"/>
<path d="M254.946 191.482C255.239 191.72 256.571 190.641 256.187 190.305C255.804 189.969 254.653 191.244 254.946 191.482Z" fill="#FF725E"/>
<path d="M254.813 193.632C254.792 193.849 257.129 194.388 257.052 193.926C256.983 193.464 254.869 193.093 254.813 193.632Z" fill="#FF725E"/>
<path d="M254.506 194.521C254.248 194.935 255.657 196.503 256.02 196.174C256.383 195.838 254.869 193.933 254.506 194.521Z" fill="#FF725E"/>
<path d="M253.969 190.347C253.969 190.347 253.92 190.417 253.809 190.536C253.704 190.655 253.544 190.824 253.348 191.027C252.951 191.433 252.379 191.972 251.716 192.532C251.053 193.093 250.418 193.555 249.951 193.877C249.714 194.038 249.525 194.164 249.386 194.248C249.253 194.332 249.177 194.374 249.17 194.374C249.17 194.374 249.239 194.318 249.365 194.22C249.504 194.115 249.693 193.982 249.909 193.828C250.369 193.492 250.99 193.023 251.653 192.462C252.316 191.909 252.895 191.377 253.299 190.978C253.495 190.789 253.655 190.634 253.781 190.508C253.892 190.396 253.962 190.34 253.962 190.34L253.969 190.347Z" fill="white"/>
<path d="M162.688 133.017C162.688 133.017 172.412 140.777 175.503 145.602C178.593 150.435 203.33 167.348 202.988 167.943C202.646 168.538 187.871 193.03 187.871 193.03L179.66 188.87L162.688 133.878" fill="#FF725E"/>
<path d="M128.128 223.509C128.128 223.509 109.684 252.727 107.821 263.856L128.128 272.204V223.509Z" fill="#FF725E"/>
<path d="M115.879 128.976C115.879 129.711 112.405 138.886 112.405 138.886L94.3018 158.895L129.224 215.987L132.698 224.615L186.455 221.492C186.455 221.492 178.774 180.556 178.23 173.763C177.679 166.97 162.688 133.01 162.688 133.01L144.585 135.027L139.283 133.192L115.879 128.969V128.976Z" fill="#FF725E"/>
<path d="M127.012 223.789C126.336 223.516 122.82 235.303 116.848 256.859C110.877 278.416 114.965 322.461 114.965 322.461H207.676C207.676 322.461 201.544 273.696 193.536 249.982C185.632 226.583 186.05 211.876 184.292 212.03C182.535 212.184 127.019 223.782 127.019 223.782L127.012 223.789Z" fill="#263238"/>
<path d="M180.902 190.88C180.902 190.88 180.881 190.831 180.853 190.725C180.825 190.599 180.791 190.445 180.749 190.263C180.665 189.85 180.539 189.248 180.358 188.477C179.995 186.93 179.43 184.702 178.516 182.013C177.609 179.331 176.41 176.158 174.666 172.846C172.831 169.582 170.571 166.122 168.003 162.649C162.876 155.673 157.477 149.951 153.263 146.169C151.17 144.257 149.357 142.857 148.108 141.883C147.487 141.428 146.999 141.071 146.636 140.812C146.482 140.7 146.357 140.602 146.259 140.525C146.176 140.462 146.134 140.42 146.134 140.42C146.134 140.42 146.182 140.441 146.273 140.497C146.385 140.567 146.51 140.651 146.671 140.756C147.041 141.008 147.55 141.344 148.185 141.778C149.461 142.724 151.31 144.089 153.431 145.987C157.7 149.727 163.155 155.442 168.29 162.445C170.864 165.94 173.124 169.407 174.952 172.706C176.696 176.053 177.875 179.247 178.754 181.95C179.639 184.66 180.17 186.902 180.491 188.463C180.651 189.241 180.756 189.85 180.818 190.263C180.846 190.452 180.867 190.606 180.888 190.732C180.902 190.838 180.902 190.894 180.902 190.894V190.88Z" fill="#263238"/>
<path d="M94.3018 158.902C94.3018 158.902 90.8905 162.852 92.1392 171.753C93.3879 180.654 107.821 220.987 107.821 220.987L139.465 210.272L122.694 176.803L111.072 162.179L94.2948 158.902H94.3018Z" fill="#FF725E"/>
<path d="M179.66 182.335C179.66 182.335 179.612 182.23 179.549 182.02C179.479 181.768 179.395 181.467 179.298 181.103C179.067 180.248 178.767 179.107 178.398 177.72C177.623 174.87 176.5 170.948 175.091 166.676C173.675 162.396 172.252 158.58 171.178 155.827C170.654 154.497 170.215 153.397 169.894 152.578C169.761 152.227 169.643 151.933 169.552 151.688C169.475 151.485 169.44 151.373 169.454 151.366C169.468 151.366 169.524 151.464 169.615 151.653C169.726 151.891 169.859 152.171 170.019 152.515C170.368 153.264 170.843 154.363 171.415 155.722C172.552 158.446 174.024 162.263 175.44 166.549C176.849 170.836 177.944 174.779 178.649 177.65C179.005 179.086 179.27 180.248 179.437 181.061C179.514 181.432 179.57 181.74 179.625 181.992C179.667 182.209 179.681 182.321 179.667 182.321L179.66 182.335Z" fill="#263238"/>
<path d="M107.821 220.98C107.821 220.98 107.87 220.952 107.968 220.917C108.079 220.875 108.226 220.819 108.407 220.749C108.819 220.602 109.398 220.399 110.137 220.133C111.672 219.601 113.876 218.837 116.653 217.878C122.255 215.966 130.158 213.263 139.416 210.104L139.318 210.342C136.611 204.992 133.646 199.116 130.535 192.967C128.889 189.703 127.277 186.516 125.729 183.435C124.982 181.873 124.103 180.437 123.301 178.981C122.485 177.538 121.676 176.13 120.873 174.765C119.269 172.04 117.664 169.491 115.976 167.25C115.125 166.136 114.253 165.1 113.332 164.182C112.418 163.258 111.414 162.522 110.402 161.899C108.379 160.646 106.342 159.882 104.508 159.434C102.673 158.979 101.041 158.839 99.7081 158.825C98.3757 158.804 97.3433 158.944 96.6457 159.021C96.3108 159.077 96.0527 159.112 95.8574 159.147C95.676 159.175 95.5853 159.182 95.5853 159.175C95.5853 159.175 95.676 159.147 95.8504 159.105C96.0457 159.063 96.3039 159.014 96.6387 158.944C97.3363 158.846 98.3688 158.678 99.7081 158.678C101.048 158.671 102.694 158.79 104.556 159.231C106.412 159.665 108.484 160.414 110.535 161.675C111.56 162.298 112.593 163.048 113.528 163.979C114.462 164.904 115.348 165.947 116.213 167.068C117.923 169.323 119.541 171.872 121.159 174.596C121.969 175.962 122.778 177.37 123.594 178.813C124.396 180.262 125.289 181.712 126.036 183.267C127.591 186.348 129.203 189.535 130.849 192.799C133.953 198.955 136.911 204.83 139.611 210.188L139.702 210.363L139.513 210.426C130.242 213.536 122.324 216.19 116.709 218.074C113.918 218.998 111.707 219.727 110.165 220.238C109.419 220.476 108.833 220.665 108.421 220.798C108.233 220.854 108.086 220.903 107.968 220.938C107.863 220.966 107.814 220.98 107.814 220.973L107.821 220.98Z" fill="#263238"/>
<path d="M137.811 151.926C137.762 152.017 132.063 149.16 125.087 145.546C118.104 141.932 112.481 138.928 112.523 138.844C112.572 138.753 118.264 141.61 125.254 145.224C132.237 148.838 137.86 151.842 137.818 151.926H137.811Z" fill="#263238"/>
<path d="M144.683 135.496C144.78 135.489 145.087 138.515 145.373 142.247C145.652 145.987 145.799 149.02 145.701 149.027C145.603 149.034 145.296 146.015 145.01 142.275C144.731 138.543 144.585 135.503 144.683 135.496Z" fill="#263238"/>
<path d="M153.117 148.074C153.117 148.074 153.04 148.109 152.893 148.158C152.726 148.214 152.51 148.284 152.231 148.375C151.645 148.558 150.794 148.838 149.691 149.216C147.494 149.972 144.341 151.142 140.504 152.739C136.667 154.335 132.147 156.345 127.194 158.734C125.966 159.364 124.599 159.791 123.427 160.569C122.855 160.961 122.345 161.472 122.136 162.137C121.906 162.789 121.99 163.531 122.255 164.189C122.82 165.534 123.999 166.556 125.031 167.705C125.554 168.272 126.085 168.847 126.622 169.428C127.131 170.03 127.64 170.633 128.156 171.242C130.18 173.7 132.049 176.193 133.716 178.687C135.412 181.166 136.925 183.638 138.327 186.012C141.104 190.781 143.371 195.201 145.192 198.955C147.006 202.708 148.394 205.79 149.322 207.926C149.775 208.984 150.131 209.81 150.382 210.391C150.494 210.657 150.577 210.874 150.647 211.036C150.703 211.183 150.731 211.26 150.724 211.26C150.724 211.26 150.682 211.19 150.612 211.05C150.536 210.888 150.438 210.678 150.312 210.419C150.047 209.838 149.671 209.026 149.189 207.982C148.219 205.867 146.796 202.806 144.955 199.067C143.106 195.334 140.825 190.929 138.035 186.18C136.632 183.813 135.112 181.355 133.423 178.883C131.756 176.396 129.893 173.917 127.884 171.466C127.375 170.864 126.866 170.261 126.357 169.666C125.826 169.092 125.296 168.517 124.773 167.95C123.755 166.816 122.548 165.779 121.927 164.322C121.634 163.601 121.536 162.768 121.801 162.018C122.045 161.255 122.631 160.688 123.231 160.274C124.473 159.462 125.833 159.042 127.047 158.425C132.014 156.058 136.549 154.069 140.399 152.501C144.25 150.932 147.424 149.797 149.636 149.083C150.745 148.726 151.61 148.467 152.196 148.305C152.475 148.228 152.698 148.172 152.866 148.123C153.019 148.081 153.096 148.067 153.096 148.074H153.117Z" fill="#263238"/>
<path opacity="0.3" d="M137.965 173.119C139.302 173.119 140.385 172.031 140.385 170.689C140.385 169.346 139.302 168.258 137.965 168.258C136.628 168.258 135.544 169.346 135.544 170.689C135.544 172.031 136.628 173.119 137.965 173.119Z" fill="black"/>
<path opacity="0.3" d="M160.637 163.706C161.974 163.706 163.057 162.618 163.057 161.276C163.057 159.934 161.974 158.846 160.637 158.846C159.3 158.846 158.216 159.934 158.216 161.276C158.216 162.618 159.3 163.706 160.637 163.706Z" fill="black"/>
<path opacity="0.3" d="M153.117 194.255C153.117 195.593 152.035 196.685 150.696 196.685C149.357 196.685 148.275 195.6 148.275 194.255C148.275 192.911 149.357 191.825 150.696 191.825C152.035 191.825 153.117 192.911 153.117 194.255Z" fill="black"/>
<path opacity="0.3" d="M173.131 188.947C174.468 188.947 175.551 187.859 175.551 186.516C175.551 185.174 174.468 184.086 173.131 184.086C171.794 184.086 170.71 185.174 170.71 186.516C170.71 187.859 171.794 188.947 173.131 188.947Z" fill="black"/>
<path d="M190.076 224.328C190.117 224.23 190.836 224.475 191.736 224.713C192.629 224.958 193.375 225.119 193.361 225.225C193.354 225.323 192.566 225.323 191.638 225.07C190.71 224.818 190.034 224.419 190.076 224.328Z" fill="#FF9A6C"/>
<path d="M112.816 219.293C112.935 219.923 123.12 234.42 131.268 234.42C139.416 234.42 179.57 222.339 179.57 222.339L174.924 209.845L134.742 215.91L132.761 212.541L112.816 219.293Z" fill="#FFBF9D"/>
<path d="M174.931 209.845C175.14 209.67 182.597 206.434 186.713 205.531C190.829 204.627 193.522 205.006 196.235 206.448C198.949 207.891 204.893 209.516 206.183 210.839C207.16 211.848 206.267 213.599 204.439 213.417C202.612 213.242 195.587 211.666 195.44 211.68C195.412 211.68 195.37 211.757 195.336 211.869C195.022 212.772 195.294 213.781 195.991 214.439L200.749 218.914C200.749 218.914 200.819 220.917 199.5 221.289C198.182 221.66 197.114 222.227 197.114 222.227C197.114 222.227 196.577 224.93 194.498 225.162C192.413 225.393 186.092 223.362 185.785 223.32C185.478 223.278 179.577 222.332 179.577 222.332L174.931 209.838V209.845Z" fill="#FFBF9D"/>
<path d="M192.426 221.177C192.468 221.079 193.48 221.478 194.763 221.814C196.047 222.157 197.121 222.304 197.114 222.416C197.114 222.514 195.991 222.521 194.673 222.171C193.347 221.828 192.385 221.268 192.426 221.184V221.177Z" fill="#FF9A6C"/>
<path d="M183.511 222.619C185.764 223.677 188.025 224.727 190.278 225.785C190.759 226.009 191.289 226.24 191.813 226.135C192.594 225.974 193.033 225.155 193.361 224.419" fill="#FFBF9D"/>
<path d="M117.511 72.619C124.515 67.2263 131.589 66.2808 140.546 66.4139C145.596 66.4909 146.378 63.5845 149.984 64.677C153.591 65.7696 156.807 67.8216 158.879 70.9591C161.341 74.685 163.371 78.8381 163.72 83.2923C164.076 87.8655 164.432 92.4668 163.943 97.0261C163.943 97.0751 163.936 97.1171 163.929 97.1661C163.134 104.338 157.511 110.017 150.396 111.019L147.529 111.425C141.083 111.439 134.546 111.439 128.324 109.779C122.094 108.113 119.157 124.865 116.806 118.877C108.854 98.6299 110.423 78.0817 117.511 72.626V72.619Z" fill="#263238"/>
<path d="M143.343 68.3539L138.69 67.6605L120.58 74.2298C117.992 74.2788 115.872 76.3098 115.697 78.9011L117.099 129.403L139.402 143.522V151.24L145.115 149.328L142.492 142.752C142.513 137.996 142.464 131.952 142.464 131.952C142.464 131.952 154.47 131.161 157.93 117.182C159.653 110.228 160.302 98.6439 160.525 89.1402C160.727 80.5889 153.842 68.718 143.329 68.3469L143.343 68.3539Z" fill="#FFBF9D"/>
<path d="M153.807 100.773C153.758 101.739 152.907 102.489 151.903 102.454C150.905 102.419 150.131 101.613 150.18 100.654C150.229 99.6944 151.08 98.938 152.084 98.973C153.089 99.0081 153.863 99.8134 153.814 100.773H153.807Z" fill="#263238"/>
<path d="M157.184 93.7905C156.939 94.0076 155.656 92.873 153.703 92.7049C151.756 92.5158 150.242 93.3913 150.047 93.1391C149.949 93.0271 150.222 92.6139 150.877 92.2147C151.526 91.8155 152.614 91.4653 153.828 91.5774C155.042 91.6894 156.026 92.2287 156.57 92.7399C157.128 93.2512 157.295 93.6994 157.177 93.7975L157.184 93.7905Z" fill="#263238"/>
<path d="M144.152 108.764C144.152 108.652 145.38 108.547 147.368 108.47C147.871 108.463 148.352 108.4 148.464 108.071C148.61 107.72 148.45 107.16 148.261 106.565C147.898 105.318 147.515 104.009 147.117 102.636C145.541 97.0401 144.445 92.4598 144.676 92.3968C144.899 92.3337 146.364 96.816 147.933 102.412C148.31 103.791 148.673 105.101 149.015 106.362C149.154 106.943 149.419 107.615 149.105 108.344C148.938 108.708 148.547 108.946 148.226 109.002C147.898 109.072 147.619 109.051 147.368 109.044C145.387 108.981 144.159 108.883 144.159 108.771L144.152 108.764Z" fill="#263238"/>
<path d="M142.499 131.938C142.499 131.938 132.949 131.728 124.027 125.229C124.027 125.229 128.212 135.489 142.457 135.398L142.492 131.938H142.499Z" fill="#FF9A6C"/>
<path d="M156.737 86.906C156.367 87.3543 154.902 86.906 153.151 86.906C151.394 86.843 149.915 87.2352 149.566 86.773C149.412 86.5489 149.643 86.1007 150.291 85.6734C150.926 85.2462 151.993 84.8961 153.2 84.9171C154.407 84.9451 155.454 85.3373 156.067 85.7855C156.695 86.2407 156.898 86.6959 156.737 86.9131V86.906Z" fill="#263238"/>
<path d="M132.126 99.3722C132.042 100.332 132.788 101.193 133.786 101.298C134.784 101.403 135.656 100.71 135.739 99.7504C135.823 98.7909 135.077 97.9295 134.079 97.8244C133.081 97.7194 132.209 98.4127 132.126 99.3792V99.3722Z" fill="#263238"/>
<path d="M130.793 92.1937C131.01 92.4458 132.433 91.4863 134.386 91.5914C136.339 91.6614 137.721 92.7469 137.944 92.5158C138.055 92.4178 137.846 91.9766 137.246 91.4863C136.653 91.0031 135.628 90.5058 134.414 90.4498C133.2 90.3938 132.154 90.793 131.54 91.2272C130.919 91.6614 130.689 92.0816 130.8 92.1937H130.793Z" fill="#263238"/>
<path d="M132.168 85.9536C132.53 86.4158 134.058 86.0306 135.872 86.1007C137.686 86.1147 139.206 86.5629 139.583 86.1147C139.751 85.8975 139.527 85.4353 138.879 84.9801C138.237 84.5249 137.149 84.1327 135.9 84.1047C134.651 84.0766 133.556 84.4268 132.9 84.854C132.237 85.2812 132.007 85.7295 132.161 85.9536H132.168Z" fill="#263238"/>
<path d="M117.378 102.839C117.469 101.781 116.465 99.1901 115.446 98.938C112.711 98.2657 107.696 98.0486 107.033 105.115C106.133 114.773 117.344 113.519 117.385 113.239C117.42 113.022 117.071 106.481 117.385 102.839H117.378Z" fill="#FFBF9D"/>
<path d="M113.695 109.632C113.653 109.597 113.514 109.737 113.221 109.835C112.935 109.933 112.446 109.982 111.965 109.744C110.981 109.275 110.277 107.573 110.395 105.829C110.451 104.947 110.716 104.128 111.086 103.462C111.449 102.783 111.944 102.335 112.467 102.293C112.991 102.223 113.318 102.566 113.416 102.846C113.521 103.126 113.444 103.315 113.493 103.336C113.521 103.364 113.716 103.196 113.674 102.79C113.653 102.594 113.563 102.356 113.353 102.146C113.137 101.936 112.809 101.809 112.446 101.809C111.7 101.788 110.968 102.412 110.556 103.14C110.102 103.868 109.789 104.786 109.726 105.78C109.607 107.734 110.43 109.646 111.784 110.179C112.446 110.417 113.025 110.27 113.339 110.067C113.66 109.856 113.73 109.646 113.695 109.625V109.632Z" fill="#FF9A6C"/>
<path d="M115.048 99.2181L117.42 101.844C128.317 92.0186 149.789 67.2263 148.589 68.711C148.589 68.711 141.439 65.4894 133.535 66.582C125.631 67.6745 110.584 71.1552 110.521 80.4699C110.458 89.7915 115.055 99.2181 115.055 99.2181H115.048Z" fill="#263238"/>
<path d="M161.104 76.737C160.288 74.9441 161.181 72.7801 162.702 71.4634C164.222 70.1467 166.246 69.4884 168.213 68.9001C170.18 68.3118 172.21 67.7376 173.835 66.533C177.051 64.1378 177.902 59.8026 177.456 55.9577C176.598 48.6111 171.819 41.9718 165.471 37.6647C159.123 33.3645 151.345 31.2355 143.559 30.5841C127.368 29.2325 112.788 34.8563 100.385 44.8152C98.3479 46.447 97.0713 48.9613 96.9527 51.4825C96.862 53.4855 98.034 55.3204 99.2478 56.9592C102.98 62.0087 107.361 65.4964 112.495 69.2783L111.051 77.5284L161.097 76.73L161.104 76.737Z" fill="#FF725E"/>
<path d="M172.873 52.4C172.873 52.4 172.719 52.6451 172.363 53.0093C172.008 53.3804 171.457 53.8777 170.731 54.431C169.999 54.9842 169.092 55.5795 168.066 56.2098C167.041 56.8402 165.904 57.5055 164.767 58.2829C163.629 59.0603 162.618 59.9007 161.837 60.7901C161.048 61.6796 160.49 62.604 160.141 63.4304C159.437 65.0972 159.569 66.2738 159.493 66.2598C159.479 66.2598 159.423 65.9797 159.444 65.4614C159.465 64.9502 159.576 64.2008 159.904 63.3324C160.232 62.4709 160.79 61.4975 161.585 60.573C162.381 59.6415 163.413 58.7801 164.564 57.9887C165.715 57.1973 166.866 56.539 167.899 55.9297C168.931 55.3204 169.845 54.7531 170.585 54.2349C172.07 53.1984 172.831 52.3649 172.88 52.407L172.873 52.4Z" fill="#263238"/>
<path d="M164.997 44.1569C165.039 44.2199 163.853 44.9133 162.206 46.356C161.795 46.7201 161.348 47.1193 160.909 47.5886C160.441 48.0368 160.009 48.5621 159.528 49.1083C158.614 50.2289 157.7 51.5385 156.891 52.9952C156.095 54.466 155.495 55.9437 155.042 57.3164C154.84 58.0097 154.63 58.6681 154.505 59.2984C154.344 59.9217 154.247 60.517 154.163 61.0562C153.835 63.2273 153.891 64.6 153.814 64.6C153.786 64.6 153.772 64.2568 153.758 63.6405C153.745 63.3324 153.745 62.9542 153.779 62.513C153.807 62.0717 153.821 61.5675 153.912 61.0212C153.982 60.468 154.065 59.8657 154.212 59.2283C154.324 58.584 154.526 57.9187 154.728 57.2113C155.175 55.8106 155.775 54.3049 156.584 52.8132C157.407 51.3284 158.349 50.0118 159.283 48.8842C159.772 48.3379 160.225 47.8057 160.707 47.3645C161.16 46.8952 161.62 46.503 162.053 46.1529C162.465 45.7817 162.883 45.5015 163.239 45.2424C163.588 44.9763 163.909 44.7732 164.174 44.6191C164.704 44.2969 164.997 44.1289 165.011 44.1569H164.997Z" fill="#263238"/>
<path d="M146.845 40.403C146.845 40.403 146.852 40.7252 146.796 41.2995C146.741 41.8737 146.671 42.7002 146.594 43.7227C146.441 45.7677 146.322 48.5971 146.427 51.7206C146.538 54.8442 146.852 57.6596 147.145 59.6906C147.292 60.7061 147.424 61.5255 147.515 62.0928C147.606 62.66 147.647 62.9752 147.62 62.9822C147.592 62.9822 147.508 62.681 147.375 62.1208C147.236 61.5605 147.068 60.7481 146.887 59.7326C146.524 57.7086 146.169 54.8792 146.057 51.7346C145.952 48.5901 146.113 45.7467 146.336 43.7016C146.448 42.6791 146.559 41.8527 146.657 41.2854C146.755 40.7182 146.817 40.403 146.845 40.41V40.403Z" fill="#263238"/>
<path d="M135 36.8102C135 36.8102 135.035 37.2094 135.028 37.9378C135.014 38.6591 135.014 39.7027 135.028 40.9913C135.056 43.5686 135.23 47.1333 135.739 51.0343C136.249 54.9352 136.988 58.4299 137.616 60.9302C137.93 62.1838 138.195 63.1923 138.39 63.8856C138.579 64.579 138.676 64.9712 138.655 64.9782C138.634 64.9852 138.488 64.614 138.258 63.9277C138.02 63.2413 137.714 62.2398 137.365 60.9932C136.674 58.5 135.886 55.0052 135.37 51.0833C134.86 47.1614 134.728 43.5756 134.763 40.9913C134.777 39.6957 134.818 38.6521 134.874 37.9308C134.923 37.2094 134.965 36.8102 134.993 36.8102H135Z" fill="#263238"/>
<path d="M112.635 45.0323C112.635 45.0323 112.921 45.2844 113.381 45.7887C113.849 46.2859 114.497 47.0283 115.279 47.9668C116.848 49.8367 118.92 52.498 121.013 55.5795C123.099 58.6681 124.808 61.5815 125.959 63.7316C126.538 64.8101 126.984 65.6855 127.277 66.3018C127.57 66.9181 127.724 67.2613 127.703 67.2753C127.682 67.2893 127.487 66.9602 127.152 66.3719C126.782 65.7206 126.308 64.8731 125.736 63.8576C124.529 61.7426 122.792 58.8642 120.713 55.7826C118.627 52.7081 116.597 50.0328 115.083 48.1278C114.351 47.2174 113.744 46.461 113.277 45.8797C112.851 45.3475 112.621 45.0463 112.642 45.0323H112.635Z" fill="#263238"/>
<path d="M111.449 93.0271C108.791 83.8946 110.186 77.5354 111.93 71.0222C111.93 71.0222 133.465 58.1218 151.212 62.1978C151.212 62.1978 162.297 64.4319 163.727 70.2098L164.041 89.8825C164.041 89.8825 162.834 82.1017 146.692 81.4854C130.549 80.8691 111.449 93.0341 111.449 93.0341V93.0271Z" fill="#FF725E"/>
<path d="M135.865 113.463C135.997 112.819 136.395 112.273 136.883 111.908C137.86 111.187 139.206 111.208 140.141 111.957C141.076 112.707 141.536 114.143 141.264 115.431C140.657 116.153 139.778 116.608 138.837 116.622C138.69 116.622 138.544 116.622 138.397 116.608C137.693 116.538 136.988 116.244 136.479 115.683C135.977 115.123 135.698 114.269 135.858 113.47L135.865 113.463Z" fill="#FF9A6C"/>
<path d="M137.295 110.305C137.574 110.326 137.344 112.182 138.76 113.701C140.176 115.228 142.171 115.27 142.157 115.529C142.171 115.648 141.676 115.83 140.839 115.753C140.016 115.676 138.858 115.263 137.993 114.332C137.128 113.4 136.849 112.273 136.883 111.502C136.911 110.718 137.176 110.284 137.302 110.312L137.295 110.305Z" fill="#263238"/>
<path d="M163.267 70.2798C163.267 70.2798 163.155 70.1117 162.981 69.7826C162.89 69.6215 162.799 69.4114 162.646 69.1803C162.492 68.9492 162.318 68.69 162.13 68.3959C161.306 67.2543 159.828 65.7766 157.595 64.607C155.377 63.4164 152.461 62.534 149.161 62.0858C145.862 61.6305 142.164 61.5675 138.348 62.0858C136.437 62.3379 134.595 62.7231 132.837 63.1783C131.079 63.6335 129.419 64.2008 127.829 64.7261C124.661 65.7976 121.843 66.8761 119.492 67.8286C117.141 68.7741 115.265 69.5935 113.96 70.1538C113.332 70.4199 112.837 70.637 112.46 70.7981C112.119 70.9451 111.93 71.0152 111.93 71.0012C111.93 70.9872 112.098 70.8961 112.432 70.728C112.802 70.5529 113.291 70.3148 113.904 70.0207C115.188 69.4184 117.058 68.564 119.395 67.5835C121.731 66.603 124.543 65.4964 127.717 64.4039C129.3 63.8646 130.968 63.2904 132.74 62.8281C134.512 62.3659 136.367 61.9667 138.293 61.7146C142.143 61.1963 145.875 61.2664 149.203 61.7426C152.531 62.2118 155.474 63.1293 157.714 64.3689C159.967 65.5875 161.446 67.1212 162.248 68.2978C162.43 68.599 162.597 68.8651 162.744 69.1102C162.883 69.3484 162.967 69.5655 163.05 69.7335C163.204 70.0767 163.281 70.2588 163.274 70.2588L163.267 70.2798Z" fill="#263238"/>
</g>
<defs>
<clipPath id="clip0_125_5705">
<rect width="336" height="323" fill="white"/>
</clipPath>
</defs>
</svg>
