<svg width="23" height="22" viewBox="0 0 23 22" fill="none" xmlns="http://www.w3.org/2000/svg">
<g clip-path="url(#clip0_110_2759)">
<path d="M11.5383 19.681C9.16843 19.681 6.79847 19.3045 4.55068 18.5519C3.69632 18.2569 3.04536 17.6569 2.76058 16.8738C2.46562 16.0906 2.56735 15.2259 3.03521 14.4529L4.20503 12.5104C4.44913 12.1035 4.67285 11.2899 4.67285 10.8119V7.87232C4.67285 4.08871 7.75466 1.0069 11.5383 1.0069C15.3219 1.0069 18.4037 4.08871 18.4037 7.87232V10.8119C18.4037 11.2797 18.6274 12.1035 18.8715 12.5205L20.0312 14.4529C20.4685 15.1852 20.5499 16.0702 20.2549 16.8738C19.9599 17.6773 19.319 18.2874 18.5154 18.5519C16.2778 19.3045 13.9081 19.681 11.5383 19.681ZM11.5383 2.53255C8.59886 2.53255 6.1985 4.92273 6.1985 7.87232V10.8119C6.1985 11.5544 5.89345 12.6528 5.51712 13.2935L4.34731 15.2361C4.12355 15.6124 4.06262 16.0092 4.19484 16.3448C4.3169 16.6907 4.62186 16.9551 5.03887 17.0975C9.29035 18.5214 13.7961 18.5214 18.0476 17.0975C18.4138 16.9754 18.6986 16.7008 18.8308 16.3347C18.963 15.9685 18.9327 15.5718 18.7292 15.2361L17.5594 13.2935C17.1729 12.6324 16.8781 11.5442 16.8781 10.8017V7.87232C16.8781 4.92273 14.4879 2.53255 11.5383 2.53255Z" fill="#333333"/>
<path d="M13.43 2.80721C13.3588 2.80721 13.2877 2.797 13.2165 2.77666C12.9215 2.69529 12.6369 2.63434 12.3623 2.59365C11.4977 2.48177 10.6635 2.54273 9.88036 2.77666C9.59557 2.8682 9.29067 2.7767 9.09742 2.56311C8.90418 2.34952 8.84301 2.04436 8.95489 1.76974C9.3719 0.701789 10.3891 0 11.5485 0C12.708 0 13.7252 0.691618 14.1422 1.76974C14.2439 2.04436 14.1929 2.34952 13.9997 2.56311C13.8471 2.72585 13.6335 2.80721 13.43 2.80721Z" fill="#333333"/>
<path d="M11.5382 22C10.5313 22 9.555 21.5931 8.84303 20.8811C8.13106 20.1691 7.72412 19.1928 7.72412 18.1859H9.24977C9.24977 18.786 9.49379 19.3757 9.92097 19.8029C10.3481 20.2301 10.9382 20.4744 11.5382 20.4744C12.7994 20.4744 13.8267 19.4471 13.8267 18.1859H15.3524C15.3524 20.2913 13.6436 22 11.5382 22Z" fill="#333333"/>
<rect x="9" y="1" width="13.451" height="13.451" rx="6.72549" fill="#E9532E"/>
<path d="M12.0855 5.72546V4.89346H13.7495V10.7255H12.8295V5.72546H12.0855ZM15.0023 7.73346C15.0023 6.8108 15.157 6.0908 15.4663 5.57346C15.781 5.0508 16.3197 4.78946 17.0823 4.78946C17.845 4.78946 18.381 5.0508 18.6903 5.57346C19.005 6.0908 19.1623 6.8108 19.1623 7.73346C19.1623 8.6668 19.005 9.39746 18.6903 9.92546C18.381 10.4481 17.845 10.7095 17.0823 10.7095C16.3197 10.7095 15.781 10.4481 15.4663 9.92546C15.157 9.39746 15.0023 8.6668 15.0023 7.73346ZM18.2663 7.73346C18.2663 7.30146 18.237 6.93613 18.1783 6.63746C18.125 6.3388 18.013 6.09613 17.8423 5.90946C17.6717 5.71746 17.4183 5.62146 17.0823 5.62146C16.7463 5.62146 16.493 5.71746 16.3223 5.90946C16.1517 6.09613 16.037 6.3388 15.9783 6.63746C15.925 6.93613 15.8983 7.30146 15.8983 7.73346C15.8983 8.18146 15.925 8.55746 15.9783 8.86146C16.0317 9.16546 16.1437 9.4108 16.3143 9.59746C16.4903 9.78413 16.7463 9.87746 17.0823 9.87746C17.4183 9.87746 17.6717 9.78413 17.8423 9.59746C18.0183 9.4108 18.133 9.16546 18.1863 8.86146C18.2397 8.55746 18.2663 8.18146 18.2663 7.73346Z" fill="white"/>
</g>
<defs>
<clipPath id="clip0_110_2759">
<rect width="22" height="22" fill="white" transform="translate(0.594482)"/>
</clipPath>
</defs>
</svg>
