<svg width="31" height="32" viewBox="0 0 31 32" fill="none" xmlns="http://www.w3.org/2000/svg">
<path d="M23.3987 23.6016C21.3827 25.6176 18.6484 26.7502 15.7973 26.7502C12.9462 26.7502 10.2119 25.6176 8.19588 23.6016C6.17986 21.5856 5.04728 18.8513 5.04728 16.0002C5.04728 13.1491 6.17986 10.4148 8.19588 8.39879C8.33717 8.25935 8.5277 8.18116 8.72621 8.18116C8.92472 8.18116 9.11525 8.25935 9.25654 8.39879C9.39598 8.54008 9.47416 8.7306 9.47416 8.92912C9.47416 9.12763 9.39598 9.31815 9.25654 9.45945C7.9629 10.7531 7.08193 12.4013 6.72501 14.1956C6.3681 15.9899 6.55128 17.8498 7.25139 19.54C7.9515 21.2302 9.1371 22.6749 10.6583 23.6913C12.1794 24.7077 13.9678 25.2502 15.7973 25.2502C17.6268 25.2502 19.4151 24.7077 20.9363 23.6913C22.4575 22.6749 23.6431 21.2302 24.3432 19.54C25.0433 17.8498 25.2265 15.9899 24.8695 14.1956C24.5126 12.4013 23.6317 10.7531 22.338 9.45945C22.1974 9.31879 22.1183 9.12803 22.1183 8.92912C22.1183 8.7302 22.1974 8.53944 22.338 8.39879C22.4787 8.25813 22.6694 8.17911 22.8683 8.17912C23.0673 8.17912 23.258 8.25813 23.3987 8.39879C25.4125 10.416 26.5436 13.1498 26.5436 16.0002C26.5436 18.8505 25.4125 21.5844 23.3987 23.6016Z" fill="#333333"/>
<path d="M16.329 15.1191C16.2596 15.189 16.1769 15.2444 16.0859 15.2821C15.9948 15.3197 15.8972 15.3388 15.7987 15.3383C15.6002 15.3372 15.4103 15.2578 15.27 15.1175C15.1297 14.9772 15.0503 14.7872 15.0491 14.5888L15.0491 2.99224C15.056 2.79803 15.138 2.61407 15.2778 2.4791C15.4176 2.34413 15.6043 2.2687 15.7987 2.2687C15.993 2.2687 16.1797 2.34413 16.3196 2.4791C16.4594 2.61407 16.5413 2.79803 16.5482 2.99224L16.5482 14.5888C16.5487 14.6873 16.5296 14.785 16.4919 14.876C16.4543 14.9671 16.3989 15.0497 16.329 15.1191Z" fill="#333333"/>
</svg>
