<svg width="20" height="20" viewBox="0 0 20 20" fill="none" xmlns="http://www.w3.org/2000/svg">
<rect width="20" height="20" rx="10" fill="#C13715"/>
<path d="M10.004 13.75C9.89762 13.7506 9.79341 13.7195 9.70472 13.6607C9.61603 13.6019 9.54686 13.5181 9.50605 13.4198C9.46524 13.3216 9.45462 13.2134 9.47556 13.1091C9.49649 13.0048 9.54803 12.9091 9.6236 12.8342L12.4636 10.0011L9.6236 7.16799C9.53581 7.06554 9.48994 6.93375 9.49515 6.79897C9.50036 6.66418 9.55627 6.53632 9.6517 6.44094C9.74713 6.34556 9.87505 6.28969 10.0099 6.28448C10.1448 6.27927 10.2766 6.32512 10.3791 6.41286L13.5942 9.6262C13.694 9.72654 13.75 9.86228 13.75 10.0038C13.75 10.1453 13.694 10.281 13.5942 10.3813L10.3791 13.5947C10.2793 13.6936 10.1446 13.7494 10.004 13.75Z" fill="white"/>
<path d="M6.78896 13.75C6.68253 13.7506 6.57832 13.7195 6.48963 13.6607C6.40094 13.6019 6.33178 13.5181 6.29096 13.4198C6.25015 13.3216 6.23953 13.2134 6.26047 13.1091C6.2814 13.0048 6.33294 12.9091 6.40851 12.8342L9.24849 10.0011L6.40851 7.16799C6.30761 7.06715 6.25092 6.93037 6.25092 6.78775C6.25092 6.64513 6.30761 6.50835 6.40851 6.4075C6.50941 6.30666 6.64626 6.25 6.78896 6.25C6.93166 6.25 7.06851 6.30666 7.16941 6.4075L10.3845 9.62085C10.4843 9.72119 10.5403 9.85693 10.5403 9.99841C10.5403 10.1399 10.4843 10.2756 10.3845 10.376L7.16941 13.5893C7.11978 13.6399 7.0606 13.6802 6.9953 13.7078C6.92999 13.7353 6.85986 13.7497 6.78896 13.75Z" fill="white"/>
</svg>
