<svg width="32" height="32" viewBox="0 0 32 32" fill="none" xmlns="http://www.w3.org/2000/svg">
<g clip-path="url(#clip0_118_5342)">
<path d="M17.2206 0L19.6468 0.417297C25.3717 1.72928 30.0511 6.30536 31.5028 11.9939C31.7075 12.7968 31.8003 13.6222 31.9708 14.431C31.9031 15.46 32.0619 16.6017 31.9708 17.6174C31.4175 23.7709 26.79 29.3193 20.9681 31.203C9.62952 34.8702 -1.54528 25.3541 0.176363 13.6072C1.23526 6.38297 7.41312 0.575035 14.7201 0H17.2198H17.2206ZM19.7204 11.9939C19.2365 12.0131 18.7275 11.7928 18.2511 11.8028C16.9983 11.827 16.8496 13.4962 18.0171 13.7908C18.898 14.0137 20.7834 14.3091 21.6902 14.3675C22.4449 14.4159 22.8277 14.158 22.9706 13.4002C22.8009 12.1609 23.1879 10.5242 23.0274 9.34495C22.8962 8.3835 21.6819 8.0797 21.1687 8.91263C20.9172 9.32074 21.091 9.89912 20.9698 10.3698C15.4497 5.92562 7.39306 10.8264 8.9885 17.8169C10.1744 23.0114 16.4593 25.2248 20.7149 22.0158C21.5816 21.3623 23.0383 19.6539 23.2054 18.5705C23.3542 17.6058 22.2719 16.969 21.5298 17.6458C21.2673 17.8845 21.045 18.6006 20.8327 18.9486C18.5428 22.7018 12.8597 22.2511 11.1907 18.1775C9.02026 12.882 15.4338 8.31005 19.7204 11.9939Z" fill="#E9532E"/>
<path d="M19.7203 11.994C15.4346 8.31005 9.02107 12.8811 11.1907 18.1775C12.8597 22.2511 18.5428 22.7018 20.8327 18.9486C21.045 18.6006 21.2673 17.8854 21.5297 17.6458C22.271 16.9698 23.3533 17.6058 23.2054 18.5706C23.0383 19.6547 21.5815 21.3631 20.7149 22.0158C16.4592 25.2248 10.1736 23.0114 8.98848 17.8169C7.39303 10.8272 15.4497 5.92645 20.9698 10.3698C21.091 9.89829 20.9163 9.32075 21.1687 8.91263C21.6827 8.07971 22.897 8.3835 23.0274 9.34495C23.1879 10.5242 22.8009 12.1617 22.9706 13.4002C22.8276 14.1581 22.4449 14.4159 21.6902 14.3675C20.7834 14.3091 18.898 14.0137 18.0171 13.7908C16.8495 13.4962 16.9983 11.827 18.2511 11.8028C18.7283 11.7936 19.2364 12.0131 19.7203 11.994Z" fill="#FCFDFE"/>
</g>
<defs>
<clipPath id="clip0_118_5342">
<rect width="32" height="32" fill="white"/>
</clipPath>
</defs>
</svg>
